<svg width="116" height="200" viewBox="0 0 116 200" fill="none" xmlns="http://www.w3.org/2000/svg">
<path d="M40 7.5L39 29.5V32.5L34.5 44.5L32 56L24.5 66.5L23.5 72.5L9.5 92.5L2 115L1.5 134.5L7.5 153L14.5 152.5H18.5L27.5 144L33.5 138L39.5 143.5L35 153.5L32 161H25.5C24.3333 163.333 22 168.1 22 168.5C22 168.9 23.3333 176.333 24 180L37 194.5H46.5L51 190C51.8 189.2 50 184.667 49 182.5C48.3333 179.5 47.3 173.2 48.5 172C49.7 170.8 51.6667 163.167 52.5 159.5L56 152.5L64.5 153L72 153.5V161.5C71.8333 170.5 71.5 188.6 71.5 189C71.5 189.4 75.8333 194.5 78 197L87 198.5L96.5 190L100 180.5L100.5 169L95.5 164.5L89 166L88 155L88.5 149L103.5 134.5L112.5 116L113.5 96.5L112 84L103.5 67L89.5 52L90 41.5L88 33L86.5 24.5V13L85.5 4.5L84.5 1.5L69 2H52L41 3L40 7.5Z" fill="#FF9966"/>
<path d="M21.0576 173.297C21.1829 172.165 21.0429 171.019 20.6486 169.951C20.3158 169.124 20.2375 168.217 20.4236 167.345C20.534 166.801 20.9308 166.327 21.0985 165.791C21.2662 165.255 21.2662 164.699 21.4258 164.155C21.5676 163.837 21.7476 163.537 21.9616 163.263C22.1621 162.935 22.338 162.596 22.5629 162.289C22.7815 161.982 23.0324 161.7 23.3115 161.447C23.9659 160.874 24.5386 160.146 25.4508 159.962C25.5631 159.928 25.6685 159.874 25.7617 159.802C27.0092 159.017 28.3264 159.25 29.6476 159.541C30.0035 159.618 30.3634 159.667 30.7111 159.765C30.8941 159.821 31.0659 159.908 31.2183 160.023C31.5333 160.248 31.7664 160.224 31.8769 159.86C32.0409 159.321 32.1774 158.775 32.2859 158.223C32.4618 157.352 32.6704 156.493 32.7768 155.601C32.8299 155.135 33.1858 154.677 33.3085 154.166C33.5376 153.282 33.9303 152.44 34.1552 151.556C34.298 150.992 34.4981 150.443 34.7525 149.92C35.1615 149.036 35.5705 148.132 35.9019 147.212C36.0122 146.923 36.0664 146.617 36.0614 146.308C36.0614 145.977 36.4214 145.637 36.6259 145.306C36.8877 144.897 37.1699 144.488 37.3949 144.058C37.4399 143.976 37.3008 143.76 37.2026 143.649C36.6179 142.961 35.9106 142.386 35.1165 141.956C34.7342 141.745 34.4333 141.412 34.2616 141.011C33.8894 140.242 33.6071 140.193 33.0713 140.827C32.3268 141.714 31.6928 142.704 30.8788 143.522C30.0648 144.34 29.5739 145.396 28.5759 146.005C28.5216 146.031 28.4761 146.072 28.445 146.124C27.9255 147.281 26.7066 147.78 25.9907 148.733C25.0908 149.911 23.7655 150.599 22.7634 151.65C22.7634 151.671 22.7265 151.703 22.702 151.711C21.5076 152.055 20.7018 153.18 19.4296 153.348C19.1189 153.437 18.8175 153.556 18.5297 153.703C18.1963 153.858 17.8344 153.942 17.4668 153.95C17.0993 153.958 16.7341 153.889 16.3945 153.748C16.0027 153.633 15.6037 153.542 15.2001 153.478C14.838 153.375 14.4913 153.224 14.1693 153.028C13.8912 152.848 13.9893 152.534 14.3248 152.464C14.6026 152.371 14.8953 152.331 15.1878 152.345C16.2677 152.538 17.1308 152.075 17.9816 151.527C18.317 151.31 18.6524 151.098 18.996 150.897C19.8959 150.361 20.6322 149.601 21.4258 148.967C22.3216 148.263 22.9024 147.281 23.8391 146.602C24.5836 146.062 25.1113 145.203 25.6839 144.447C26.2021 143.686 26.8419 143.016 27.5778 142.463C27.8954 142.176 28.1708 141.845 28.3959 141.481C28.6495 141.166 28.8908 140.839 29.1526 140.532C29.8071 139.759 30.4616 138.982 31.1406 138.233C31.3574 137.992 31.341 137.861 31.1038 137.677C30.797 137.432 30.8911 137.178 31.1038 136.924C31.6151 136.356 32.11 135.771 32.6377 135.219C32.7563 135.1 33.0467 134.973 33.1367 135.035C33.5458 135.321 33.7176 135.063 33.9139 134.81C34.5684 133.959 35.2147 133.096 35.8651 132.241C35.9222 132.173 35.9837 132.108 36.0491 132.048C36.7772 131.345 36.7445 131.329 37.1372 130.175C37.3643 129.668 37.6912 129.212 38.0984 128.833C38.3009 128.546 38.5222 128.273 38.7611 128.015C39.6814 127.234 39.8941 126.023 40.5732 125.107C41.1254 124.359 41.4526 123.45 42.2093 122.837C42.2911 122.101 42.8638 121.643 43.2033 121.049C43.3588 120.771 43.551 120.514 43.7024 120.231C43.9928 119.704 44.2668 119.172 44.545 118.636C44.5859 118.562 44.5736 118.44 44.6309 118.399C45.2976 117.9 45.4203 117.09 45.7721 116.415C46.1239 115.74 46.4389 114.987 46.8029 114.288C47.0357 113.851 47.2924 113.428 47.5719 113.02C47.8635 112.655 48.0602 112.223 48.1446 111.764C48.1625 111.529 48.2296 111.301 48.3417 111.094C48.4537 110.886 48.6082 110.705 48.795 110.561C48.9054 110.48 49.0486 110.332 49.0445 110.222C48.9913 109.522 49.6417 109.203 49.8626 108.655C49.9689 108.393 50.1448 108.16 50.2716 107.907C50.3984 107.653 50.5457 107.281 50.7052 106.978C50.9302 106.549 50.787 106.046 51.0161 105.6C51.0644 105.424 51.1495 105.261 51.2656 105.121C51.7202 104.671 52.044 104.105 52.2023 103.485C52.4723 102.573 52.82 101.681 53.1227 100.773C53.3722 100.028 53.4949 99.2392 53.9408 98.5765C53.7403 98.012 54.1698 97.6192 54.3907 97.2102C54.7001 96.5184 54.9491 95.8014 55.1351 95.0669C55.1351 95.0137 55.1352 94.9442 55.1556 94.8951C55.3397 94.5433 55.6956 94.1833 55.6751 93.8479C55.6535 93.481 55.7312 93.1149 55.9001 92.7884C56.1169 92.2893 56.1455 91.7127 56.3378 91.1973C56.6282 90.4283 57.0086 89.6919 57.3113 88.927C57.4463 88.5834 57.4667 88.195 57.5812 87.8391C57.6958 87.4832 57.9249 87.021 58.0353 86.6119C58.3609 85.15 58.8224 83.7216 59.4138 82.3455C59.4448 82.2948 59.4631 82.2371 59.467 82.1778C59.4383 81.5847 59.7369 81.1103 59.9619 80.5867C60.4923 79.4758 60.7074 78.2406 60.5837 77.0158C60.5591 76.8031 60.7309 76.5699 60.7391 76.3449C60.7759 75.4245 60.7841 74.5001 60.8045 73.5756C60.7966 73.5187 60.7966 73.4609 60.8045 73.4039C61.2585 72.1399 60.7759 70.8719 60.8045 69.6038C60.7591 69.3067 60.6681 69.0181 60.5346 68.7488C60.2403 68.8587 59.9568 68.9956 59.6878 69.1578C58.9311 69.7141 58.2971 70.4465 57.3849 70.7696C56.7182 71.0069 56.1782 71.4936 55.4869 71.694C55.1793 71.8022 54.9075 71.9934 54.7016 72.2462C54.2029 72.7542 53.634 73.1881 53.0122 73.5347C52.2432 74.0215 51.376 74.1891 50.607 74.5777C49.8649 74.6031 49.1219 74.5854 48.3818 74.5246C47.4123 74.1867 46.6069 73.4939 46.128 72.5858C45.8182 72.0504 45.6494 71.4451 45.6371 70.8268C45.6699 70.205 45.359 69.5996 45.5553 68.9779C45.9153 67.8162 46.2139 66.6382 46.5616 65.4724C46.6454 65.2567 46.7643 65.0562 46.9134 64.8792C47.1179 64.5929 47.347 64.3229 47.5556 64.0366C47.5965 63.9793 47.5801 63.8812 47.5924 63.8035C47.5188 63.8035 47.4247 63.8035 47.3674 63.8281C47.1956 63.9385 47.0483 64.0939 46.8684 64.188C46.0994 64.597 45.3549 65.0961 44.5327 65.3129C43.9928 65.456 43.4078 65.4765 42.8474 65.6688C41.923 65.9837 40.9454 66.1473 40.1682 66.7976C40.1204 66.8335 40.0639 66.8561 40.0046 66.8632C38.6793 67.0963 37.624 67.9635 36.3845 68.3889C36.2782 68.4257 36.1309 68.4258 36.0737 68.4953C35.6062 69.143 34.9049 69.5832 34.1184 69.7225C33.9303 69.7593 33.7748 69.9473 33.5908 70.0332C33.2267 70.1969 32.9281 70.516 32.4618 70.4711C32.2615 70.495 32.0747 70.584 31.93 70.7245C31.3819 71.1663 30.8543 71.6368 30.2939 72.0827C29.7335 72.5285 29.0667 73.0356 28.4777 73.5183C28.3018 73.6615 28.1423 73.8333 27.9787 73.9929C27.0992 74.8396 25.958 75.3714 25.2053 76.3776C24.9291 76.6762 24.5952 76.9155 24.2236 77.0811C22.9638 77.7765 22.1784 78.9954 21.119 79.9035C21.0264 79.9764 20.9544 80.0723 20.9104 80.1817C20.5954 81.2697 19.7773 82.0305 19.1433 82.9018C18.6933 83.5194 18.2025 84.1289 17.7116 84.6934C17.3762 85.1024 17.1226 85.532 16.5459 85.712C16.4467 85.7342 16.353 85.7757 16.2699 85.8342C16.1868 85.8927 16.1161 85.9671 16.0618 86.0529C16.0075 86.1388 15.9706 86.2346 15.9533 86.3347C15.936 86.4348 15.9386 86.5372 15.9609 86.6363C15.9855 86.7427 15.871 86.9065 15.7851 87.0128C15.376 87.5323 14.922 88.0312 14.517 88.5589C14.3648 88.8009 14.2282 89.0522 14.108 89.3115C14.0117 89.4828 13.9052 89.648 13.7889 89.8064C13.7194 89.8964 13.5844 89.9456 13.5312 90.0397C13.0485 90.8946 12.5822 91.7576 12.1077 92.6166C12.061 92.6914 12.0105 92.7639 11.9564 92.8335C11.4246 93.6516 10.7497 94.4165 10.6229 95.4514C10.0707 95.9954 10.042 96.7603 9.7598 97.4189C9.47756 98.0774 9.06853 98.646 8.80265 99.3045C8.47769 99.9447 8.22262 100.618 8.04184 101.313C7.99684 101.563 7.78823 101.775 7.70642 102.025C7.56001 102.334 7.48453 102.672 7.48552 103.014C7.52706 103.183 7.5178 103.361 7.45885 103.525C7.39991 103.689 7.29391 103.831 7.15419 103.935C6.98065 104.047 6.85355 104.218 6.7964 104.417C6.73925 104.615 6.75594 104.828 6.84334 105.015C6.86276 105.159 6.8536 105.305 6.8164 105.445C6.7792 105.586 6.71468 105.717 6.62653 105.833C6.26248 106.41 5.89026 106.958 6.12751 107.69C6.1392 107.745 6.13709 107.802 6.12139 107.857C6.1057 107.911 6.07689 107.96 6.03751 108.001C5.46893 108.357 5.76754 108.872 5.75936 109.334C5.75936 109.559 5.80845 109.895 5.68573 109.989C5.10489 110.431 5.19896 111.016 5.21942 111.625C5.24147 111.853 5.19746 112.084 5.09261 112.288C4.7572 112.807 5.01899 113.515 4.50768 113.969C4.91673 114.664 4.04954 115.306 4.42177 116.014C3.95955 116.832 4.25816 117.765 3.99228 118.612C3.93882 118.716 3.9148 118.833 3.92275 118.951C4.16 119.83 3.81638 120.677 3.77957 121.54C3.7223 123.013 3.40735 124.481 3.64051 125.966C3.65253 126.024 3.65253 126.084 3.64051 126.142C3.52598 126.657 3.3828 127.165 3.301 127.684C3.21919 128.203 3.67323 128.596 3.35827 129.107C3.25601 129.271 3.35827 129.553 3.35827 129.778C3.47689 130.911 3.57914 132.044 3.63232 133.19C3.69777 134.572 3.7305 135.992 4.17636 137.342C4.27453 137.64 4.55677 137.972 4.13137 138.258C4.10273 138.258 4.10273 138.376 4.13137 138.413C4.61404 139.092 4.37269 139.943 4.68357 140.675C4.81824 141.093 4.90066 141.526 4.92899 141.964C5.10809 143.115 5.45396 144.234 5.95569 145.285C6.07041 145.493 6.14403 145.721 6.1725 145.956C6.22567 147.265 6.88424 148.41 7.11739 149.678C7.30555 150.685 7.63687 151.662 7.89866 152.656C7.95555 152.792 7.98207 152.939 7.97637 153.086C7.96626 153.167 7.93964 153.245 7.89813 153.315C7.85662 153.386 7.80112 153.447 7.73505 153.495C7.65774 153.516 7.5763 153.519 7.49785 153.502C7.4194 153.485 7.34634 153.449 7.28509 153.397C6.7778 152.91 6.30746 152.386 5.87797 151.83C5.19078 150.869 4.54857 149.871 3.95546 148.852C3.64867 148.328 3.54642 147.703 3.24782 147.159C2.93472 146.477 2.70535 145.76 2.56472 145.023C2.4134 144.106 2.17085 143.206 1.8407 142.336C1.59777 141.691 1.44767 141.015 1.39486 140.328C1.19033 138.908 1.05533 137.464 0.838537 136.061C0.576748 134.339 0.175906 132.638 0.29862 130.875C0.293649 130.612 0.266275 130.351 0.216806 130.093C0.128943 129.516 0.145567 128.927 0.265889 128.355C0.368142 127.846 0.380586 127.322 0.302689 126.809C0.262355 126.371 0.273344 125.93 0.33542 125.496C0.321707 125.151 0.262569 124.81 0.159533 124.481C0.0862938 124.087 0.0330438 123.69 0 123.291C0 123.185 0.135001 123.066 0.2209 122.964C0.3068 122.861 0.454038 122.8 0.458128 122.714C0.486761 121.52 0.494952 120.321 0.519495 119.127C0.51612 118.936 0.553789 118.746 0.629945 118.571C0.836451 118.216 0.926551 117.805 0.88762 117.397C0.899187 117.06 0.959819 116.726 1.0676 116.407C1.09623 116.243 1.17396 116.018 1.10033 115.924C0.773096 115.515 1.01443 115.126 1.07579 114.746C1.17999 114.269 1.30833 113.798 1.46029 113.335C1.53236 113.173 1.56194 112.996 1.5462 112.819C1.3335 112.157 1.64846 111.592 1.8039 110.974C2.14341 109.649 2.58109 108.344 2.82651 107.003C3.14578 105.633 3.53904 104.281 4.00457 102.953C4.21318 102.254 4.4136 101.554 4.63449 100.867C4.83083 100.266 5.29305 99.7585 5.25215 99.0672C5.25215 98.9282 5.42394 98.781 5.50575 98.6296C5.641 98.4421 5.74719 98.2353 5.82073 98.0161C6.08251 96.8135 6.85968 95.8154 7.15419 94.6251C7.25251 94.3791 7.39072 94.1511 7.56324 93.9502C7.64095 93.8275 7.8005 93.7333 7.83322 93.6065C8.08683 92.5225 8.90491 91.7495 9.36304 90.7719C10.0748 89.2421 10.9133 87.7695 11.711 86.2724C11.8245 86.1007 11.9622 85.9464 12.12 85.8142C12.5681 85.3575 12.9433 84.8346 13.2326 84.2639C13.5496 83.7536 13.8994 83.2645 14.2798 82.7995C15.556 81.102 16.914 79.4739 18.2761 77.8419C18.5525 77.4698 18.7666 77.0554 18.9102 76.6147C19.176 75.903 19.3765 75.1668 19.6219 74.4469C19.6833 74.2587 19.81 74.0911 19.8919 73.907C20.2291 73.264 20.511 72.5935 20.7345 71.9027C21.0004 70.9046 21.5526 69.9884 22.0271 69.0394C22.1784 68.7244 22.3748 68.4299 22.5384 68.119C23.0783 67.0842 23.5774 66.0246 24.1746 65.0224C24.5345 64.413 25.054 63.8976 25.4712 63.3168C26.1134 62.421 26.7311 61.5087 27.3447 60.5925C27.5684 60.2213 27.8439 59.884 28.1628 59.5904C29.2222 58.6823 29.5003 57.4225 29.578 56.0972C29.5793 55.9834 29.5888 55.8699 29.6067 55.7576C29.9421 54.3096 30.0771 52.8044 30.7029 51.4259C30.7504 51.2948 30.774 51.1563 30.7725 51.0169C30.7725 50.8737 30.7111 50.6854 30.7725 50.5872C30.9974 50.26 31.2715 49.9614 31.5292 49.6505C31.1201 49.3069 31.202 48.9184 31.3533 48.4725C31.4641 48.0481 31.5515 47.618 31.6151 47.1841C31.6451 47.0141 31.7106 46.8524 31.8073 46.7095C32.4086 45.9241 32.6254 44.9547 33.0999 44.1038C33.1285 44.0548 33.1858 43.9936 33.1736 43.9526C32.9322 43.2286 33.5826 42.7827 33.7298 42.1815C33.8117 41.8501 33.9835 41.5392 34.0939 41.212C34.1675 40.987 34.1962 40.7456 34.2616 40.5165C34.372 40.1075 34.4784 39.6984 34.6175 39.2894C34.7565 38.8803 34.9365 38.4713 35.1124 38.0622C35.7237 36.7118 36.5103 35.4479 37.4521 34.3031C37.6486 34.1026 37.7965 33.8597 37.8844 33.5931C37.9724 33.3265 37.998 33.0433 37.9594 32.7652C37.9205 32.6012 37.9205 32.4302 37.9594 32.2661C38.115 31.473 38.1755 30.6644 38.1393 29.857C38.1393 29.4766 38.1393 29.0961 38.1639 28.7157C38.1884 28.3353 38.1393 27.9303 38.4952 27.644C38.5361 27.6113 38.4952 27.468 38.4952 27.3903C38.4952 27.3126 38.2989 27.1409 38.303 27.0222C38.3316 26.1223 38.3889 25.2225 38.4298 24.3267C38.4923 23.804 38.5019 23.2764 38.4584 22.7518C38.2494 21.8385 38.2272 20.8923 38.3929 19.9702C38.622 19.0458 38.438 18.1419 38.5116 17.2297C38.5852 16.3175 38.4748 15.4259 38.4789 14.526C38.4789 14.2437 38.6302 13.9656 38.6343 13.6833C38.6343 12.9511 38.6343 12.2188 38.6343 11.4907C38.6343 11.0817 38.6057 10.6726 38.6016 10.2636C38.6016 9.97315 38.6343 9.68697 38.6384 9.39655C38.6384 8.603 38.6384 7.80933 38.6629 7.01578C38.6629 6.90125 38.7284 6.76623 38.6875 6.67624C38.6077 6.46578 38.5931 6.23621 38.6456 6.01734C38.6981 5.79846 38.8153 5.60042 38.982 5.44911C39.3174 5.06051 39.4851 4.79055 39.2642 4.22197C39.0801 3.74748 39.4524 3.2812 39.8328 2.92533C40.1109 2.66763 40.3645 2.38539 40.6509 2.10724C40.9447 1.8214 41.2933 1.59796 41.6757 1.45033C42.0581 1.30271 42.4664 1.23393 42.8761 1.24821C43.2236 1.26066 43.5714 1.24015 43.9151 1.18689C44.4578 1.08826 45.0153 1.10503 45.5513 1.23603C46.0912 1.35465 46.6966 1.17477 47.2733 1.13796C47.5024 1.13796 47.7969 1.06017 47.9523 1.16652C48.4105 1.48148 49.0159 0.974173 49.4372 1.4773C49.4781 1.52638 49.8053 1.27286 50.0099 1.26059C51.2861 1.12703 52.5735 1.1408 53.8466 1.30154C54.931 1.46918 56.0347 1.46918 57.119 1.30154C58.2439 1.12974 59.3933 1.13788 60.5305 1.05607C61.2913 1.00289 62.048 0.892468 62.8088 0.867925C63.7292 0.839292 64.6495 0.516202 65.5781 0.822986C65.6347 0.835147 65.6933 0.835147 65.7499 0.822986C66.8666 0.671639 67.9751 0.483335 69.0959 0.368802C70.2166 0.25427 71.3129 -0.0402185 72.45 0.291108C72.6677 0.361982 72.8972 0.389053 73.1254 0.3708C73.3535 0.352547 73.5758 0.289427 73.7794 0.184852C74.1921 0.0432633 74.6335 0.00660815 75.0639 0.0783966C75.6897 0.11112 76.291 0.233937 76.925 0.287113C77.2977 0.337126 77.676 0.327332 78.0458 0.258352C79.2729 -0.0443409 80.5 0.278789 81.7272 0.139713C82.0094 0.10699 82.4921 0.336143 82.5452 0.229791C82.762 -0.0974448 83.0279 0.0169919 83.2693 0.0292632C83.5106 0.0415346 84.0383 0.0661572 84.0874 0.213413C84.2714 0.712448 84.7909 0.687977 85.0977 1.00294C86.0205 1.85008 86.6023 3.00496 86.7339 4.25073C86.8607 5.73966 87.0039 7.22445 87.1757 8.70928C87.2575 9.43738 87.4824 10.1532 87.2493 10.8895C87.2412 10.9176 87.2412 10.9473 87.2493 10.9754C87.6583 12.3907 87.3065 13.7978 87.1838 15.2049C87.1737 15.2918 87.1737 15.3797 87.1838 15.4667C87.3597 16.9065 87.1511 18.3668 87.5152 19.8066C87.6359 20.5296 87.6907 21.2621 87.6788 21.9951C87.6753 22.1137 87.6891 22.2321 87.7197 22.3468C88.1287 23.4553 87.9365 24.5884 87.8587 25.7174C87.8498 25.9106 87.8635 26.1042 87.8996 26.2942C87.8996 26.4047 88.0551 26.5395 88.0265 26.609C87.687 27.3494 88.2065 27.9344 88.4028 28.5561C88.5991 29.1779 88.9755 29.8079 89.2209 30.446C89.3172 30.7209 89.3871 31.0044 89.4295 31.2926C89.4499 31.4645 89.4855 31.6343 89.5358 31.7999C89.8525 32.507 90.07 33.2543 90.1821 34.0209C90.2762 34.7163 90.7016 35.3627 90.9757 36.0294C91.053 36.1788 91.1028 36.3409 91.1229 36.508C91.1229 37.7024 91.1229 38.8969 91.1475 40.0913C91.1843 41.0403 91.3929 41.9933 91.3806 42.9546C91.3806 44.149 91.3806 45.3393 91.4052 46.5337C91.4052 47.3723 91.3356 48.2354 91.3397 49.0903C91.3298 49.2614 91.3408 49.4331 91.3725 49.6016C91.5206 50.0771 91.5206 50.5863 91.3725 51.0618C91.2847 51.2817 91.2776 51.5256 91.3525 51.7503C91.4274 51.9749 91.5794 52.1657 91.7815 52.2889C92.5464 52.8575 93.2786 53.4752 93.9985 54.1011C94.4812 54.5101 94.8616 55.0746 95.3852 55.4141C96.3141 56.1007 97.1405 56.916 97.8394 57.8356C98.1789 58.2242 98.7516 58.3223 99.0666 58.7927C99.3429 59.1979 99.642 59.5872 99.9624 59.9585C100.164 60.2435 100.392 60.5081 100.645 60.7481C101.154 61.2092 101.601 61.7344 101.975 62.3105C102.04 62.4072 102.115 62.4963 102.2 62.5764C103.21 63.4958 103.995 64.635 104.495 65.9061C104.712 66.2535 104.965 66.5784 105.247 66.8755C105.701 67.5218 106.27 68.1353 106.544 68.8552C106.92 69.841 107.73 70.5691 108.025 71.5999C108.211 72.024 108.459 72.4182 108.761 72.7697C109.242 73.3762 109.564 74.0934 109.698 74.8559C109.699 74.9416 109.728 75.0246 109.779 75.0932C110.303 75.5513 110.364 76.2099 110.557 76.8152C110.687 77.1676 110.841 77.5106 111.019 77.8419C111.252 78.3409 111.587 78.7991 111.592 79.3882C111.592 79.5763 111.747 79.7603 111.804 79.9526C111.919 80.333 112.181 80.6685 112.099 81.1062C112.098 81.2776 112.14 81.4463 112.221 81.597C112.569 82.5378 113.04 83.4336 113.179 84.4603C113.324 85.0678 113.521 85.6617 113.768 86.2355C113.821 86.3664 113.857 86.504 113.874 86.6445C113.949 87.5083 114.173 88.3526 114.537 89.1397C114.671 89.6394 114.729 90.1566 114.708 90.6736C114.762 91.5531 114.672 92.4531 115.117 93.2753C115.117 93.2998 115.162 93.3366 115.158 93.3448C114.7 93.8929 115.248 94.3633 115.273 94.8705C115.297 95.3778 115.273 95.9873 115.273 96.5395C115.257 96.9375 115.339 97.3334 115.51 97.6929C115.788 98.102 115.608 98.4619 115.576 98.8342C115.535 99.3455 115.359 99.8526 115.682 100.339C115.716 100.387 115.732 100.445 115.727 100.503C115.432 101.73 115.796 103.035 115.412 104.27C115.359 104.492 115.359 104.723 115.412 104.945C115.503 105.523 115.488 106.112 115.367 106.684C115.297 107.056 115.338 107.444 115.293 107.821C115.183 108.729 115.293 109.666 114.929 110.545C114.839 110.905 114.775 111.272 114.737 111.641C114.473 112.743 114.274 113.859 114.14 114.983C114.013 115.83 113.96 116.677 113.457 117.409C113.33 118.824 112.532 120.064 112.381 121.471C112.291 122.317 111.804 122.992 111.461 123.729C111.403 123.855 111.244 123.995 111.268 124.093C111.436 124.731 111.031 125.144 110.724 125.602C110.679 125.672 110.569 125.717 110.553 125.79C110.143 127.426 108.994 128.727 108.483 130.322C108.248 130.856 107.956 131.362 107.612 131.832C107.084 132.707 106.556 133.582 106.02 134.45C105.93 134.601 105.818 134.739 105.689 134.859C105.301 135.244 104.977 135.689 104.728 136.176C104.306 136.798 103.839 137.387 103.329 137.939C103.043 138.291 102.728 138.622 102.462 138.986C101.682 140.079 100.776 141.075 99.7619 141.956C99.2956 142.365 98.8866 142.802 98.4325 143.207C97.8108 143.76 97.2054 144.308 96.5305 144.844C96.101 145.183 95.602 145.412 95.3402 145.964C95.2379 146.181 94.8575 146.259 94.6162 146.418C93.7981 146.966 93.0373 147.646 92.1619 148.055C91.2865 148.464 90.673 149.237 89.7403 149.535C89.3313 149.666 89.3313 149.863 89.5154 150.288C89.7618 150.914 89.8612 151.589 89.8058 152.259C89.7772 153.532 89.5195 154.796 89.7444 156.084C89.8876 156.927 89.7772 157.806 89.8794 158.657C90.0062 159.692 90.2435 160.702 90.4316 161.741C90.4725 161.97 90.5012 162.203 90.5257 162.436C90.5503 162.67 90.5748 163.009 90.5994 163.3C90.8816 163.251 91.1679 163.214 91.4461 163.152C92.2241 162.951 93.0119 162.79 93.8063 162.67C94.3062 162.608 94.8133 162.688 95.2706 162.899C95.7656 163.152 96.2769 163.067 96.7677 163.197C97.3977 163.365 97.4058 163.332 98.2321 163.979C98.3875 164.097 98.6412 164.114 98.7721 164.232C98.9901 164.414 99.1938 164.612 99.3815 164.825C99.5589 165.056 99.762 165.266 99.9869 165.451C100.374 165.715 100.662 166.101 100.805 166.547C100.988 167.049 101.209 167.536 101.468 168.004C101.717 168.458 101.837 168.971 101.815 169.488C101.815 169.673 101.815 169.955 101.946 170.016C102.31 170.221 102.29 170.495 102.257 170.834C102.258 171.091 102.282 171.347 102.331 171.599C102.365 171.801 102.382 172.004 102.384 172.209C102.269 173.726 102.138 175.244 102.028 176.765C102.004 177.084 102.073 177.412 102.053 177.731C102.012 178.25 101.938 178.77 101.869 179.285C101.824 179.604 101.721 179.915 101.701 180.234C101.574 181.778 101.184 183.289 100.547 184.701C100.376 185.11 100.007 185.519 100.175 186.083C100.232 186.267 100.081 186.546 99.9583 186.738C99.5043 187.474 99.1402 188.309 98.5226 188.885C97.9039 189.545 97.3325 190.248 96.8127 190.988C95.8351 192.215 94.8943 193.487 93.839 194.649C93.0209 195.561 92.1701 196.498 91.0084 197.042C90.7678 197.207 90.5492 197.402 90.358 197.622C89.7201 198.207 88.9739 198.662 88.1614 198.96C87.3188 199.259 86.4148 199.169 85.6417 199.537C84.4432 200.101 83.212 200.024 81.9603 199.946C81.6759 199.971 81.3898 199.971 81.1054 199.946C80.7749 199.842 80.4557 199.705 80.1523 199.537C80.0664 199.5 79.9437 199.345 79.9396 199.353C79.4692 199.782 79.0929 199.324 78.7125 199.185C77.1517 198.586 75.7514 197.632 74.6221 196.4C73.7362 195.44 72.9163 194.422 72.1678 193.352C72.0693 193.208 71.9252 193.102 71.7587 193.049C71.4348 192.958 71.1383 192.788 70.8957 192.555C70.6531 192.322 70.4718 192.032 70.368 191.712C70.2236 191.428 70.1373 191.118 70.1142 190.801C70.091 190.483 70.1314 190.165 70.233 189.863C70.4416 189.36 70.0489 188.812 70.4416 188.366C69.8158 187.863 70.3189 187.294 70.3435 186.75C70.3916 186.341 70.3779 185.928 70.3026 185.523C70.0585 184.443 69.9541 183.337 69.9917 182.23C70.0147 181.887 70.0722 181.547 70.1635 181.216C70.1635 181.134 70.2698 181.036 70.2453 180.983C69.779 179.936 70.503 178.868 70.1839 177.817C70.1199 177.593 70.0761 177.365 70.0531 177.133C70.0589 176.871 70.0438 176.608 70.008 176.348C69.8894 175.939 70.593 175.763 70.323 175.362C70.053 174.961 70.3516 174.687 70.3516 174.356C70.3516 173.309 70.3516 172.262 70.2657 171.219C70.176 170.168 70.3156 169.11 70.6748 168.118C70.6748 168.061 70.6748 167.93 70.6421 167.91C70.2903 167.738 70.3639 167.443 70.3803 167.145C70.4416 166.245 70.4171 165.328 70.5521 164.437C70.6216 163.95 70.8057 163.475 70.6584 162.989C70.3721 162.048 70.7975 161.132 70.7034 160.203C70.6093 159.275 70.9775 158.326 71.0429 157.377C71.0879 156.747 71.1779 156.117 71.227 155.487C71.227 155.241 71.1125 155.111 70.8466 155.135C69.8853 155.225 68.9282 155.336 67.9833 155.385C67.4965 155.409 67.0016 155.307 66.5107 155.286C65.304 155.245 64.0892 155.286 62.8866 155.16C62.003 155.07 61.1481 154.685 60.2687 154.611C59.3933 154.542 58.5324 154.348 57.7122 154.035C57.5473 153.98 57.3774 153.941 57.2049 153.92C56.6732 153.83 56.6159 153.867 56.8368 154.382C57.0577 154.898 56.8654 155.311 56.8368 155.765C56.8368 155.978 56.5587 156.174 56.3991 156.374C56.2396 156.575 55.99 156.73 55.9001 156.955C55.6587 157.749 55.037 158.26 54.5911 158.902C54.2365 159.377 53.945 159.895 53.724 160.445C53.5107 161.007 53.3277 161.58 53.1759 162.162C52.9581 162.872 52.6675 163.558 52.3087 164.208C52.1689 164.421 52.1015 164.673 52.1164 164.928C52.1841 165.511 52.0499 166.1 51.736 166.597C51.301 167.389 51.0232 168.259 50.9179 169.157C50.7993 169.975 50.5375 170.793 50.3452 171.611C50.2978 171.779 50.2744 171.952 50.2757 172.127C50.3021 172.612 50.2566 173.099 50.1407 173.571C50.0411 174.052 50.0565 174.549 50.1857 175.023C50.2399 175.246 50.2271 175.481 50.1489 175.698C49.9234 176.45 49.8744 177.243 50.0058 178.017C50.1816 178.79 50.0508 179.625 50.4639 180.357C50.2307 180.856 50.5497 181.236 50.7297 181.649C50.787 181.78 50.8525 181.989 50.7911 182.058C50.4107 182.602 50.8525 182.995 51.0079 183.437C51.3515 184.415 51.7565 185.38 52.0387 186.374C52.2235 187.138 52.2979 187.924 52.2596 188.709C52.2596 190.317 51.2615 191.499 50.5948 192.8C50.0998 193.625 49.4481 194.345 48.6764 194.919C48.2264 195.291 47.8133 195.7 47.3756 196.085C47.2692 196.179 47.1342 196.24 47.0197 196.326C46.717 196.555 46.2384 196.035 46.0421 196.506C45.8457 196.976 45.359 196.665 45.1176 196.952C45.0548 197.008 44.9731 197.039 44.8886 197.038C44.1646 197.009 43.4447 196.94 42.7206 196.944C42.171 196.931 41.6218 196.983 41.0845 197.099C40.3236 197.263 39.5291 197.147 38.847 196.772C38.7494 196.706 38.6435 196.654 38.532 196.616C38.1884 196.563 37.8816 196.539 37.9144 196.04C37.9144 195.929 37.583 195.749 37.3785 195.684C37.1045 195.594 36.7977 195.614 36.5195 195.541C36.0205 195.41 35.4478 195.418 35.1492 194.874C34.1471 194.575 33.6726 193.577 32.785 193.111C32.4243 192.923 32.111 192.656 31.8687 192.329C31.4187 191.687 30.7234 191.372 30.1548 190.89C29.7225 190.505 29.3128 190.095 28.9277 189.662C27.7005 188.386 26.7965 186.869 25.7985 185.425C25.386 184.769 25.0197 184.086 24.7022 183.38C24.2236 182.443 23.7123 181.518 23.3074 180.553C22.6284 178.95 21.9575 177.338 21.4176 175.685C21.0903 175.002 21.1476 174.127 21.0576 173.297ZM77.7349 124.031H77.8044C77.8352 124.377 77.8352 124.725 77.8044 125.07C77.7553 125.34 77.5386 125.578 77.4608 125.847C77.3422 126.257 77.289 126.666 77.195 127.099C77.015 127.88 76.8309 128.662 76.6346 129.439C76.5596 129.756 76.464 130.067 76.3482 130.372C76.1151 130.965 75.8124 131.537 75.6201 132.143C75.1592 133.642 74.6045 135.11 73.9594 136.54C73.8994 136.67 73.8568 136.808 73.8326 136.949C73.6182 137.89 73.2956 138.803 72.8713 139.669C72.641 140.178 72.3673 140.667 72.0532 141.129C71.272 142.389 70.6175 143.727 69.6276 144.852C69.2875 145.218 69.001 145.632 68.7768 146.079C68.4782 146.733 67.8646 147.056 67.4311 147.564C67.2511 147.768 66.8011 147.564 66.7438 147.261C66.662 146.852 67.0179 146.201 67.4352 146.161C67.8524 146.12 67.7501 145.956 67.6479 145.719C67.4556 145.265 67.292 144.815 67.7337 144.39C67.8196 144.308 67.7705 144.103 67.8155 143.98C67.9052 143.676 68.0159 143.378 68.1469 143.089C68.2819 142.798 68.4619 142.528 68.6132 142.242C68.8709 141.755 69.1122 141.26 69.3904 140.786C69.4272 140.724 69.6317 140.757 69.7544 140.745C69.6728 140.597 69.607 140.44 69.5581 140.279C69.5284 140.142 69.5412 139.999 69.5949 139.869C69.738 139.583 69.918 139.313 70.0776 139.051C70.1553 138.912 70.3066 138.728 70.2698 138.642C70.0448 138.025 70.2698 137.522 70.5807 137.006C70.6888 136.766 70.7724 136.515 70.8302 136.258C71.1043 135.439 71.3538 134.597 71.6483 133.783C72.0001 132.863 72.54 131.991 72.7405 131.042C72.9409 130.093 73.4154 129.165 73.7263 128.22C74.0096 127.373 74.227 126.507 74.3766 125.627C74.6425 124.048 74.8184 122.452 75.0557 120.869C75.1252 120.383 75.3011 119.908 75.3829 119.421C75.5219 118.567 75.6283 117.703 75.7387 116.844C75.796 116.394 75.9514 115.957 75.7387 115.482C75.6667 115.203 75.6667 114.911 75.7387 114.632C75.841 113.678 76.0333 112.729 76.0619 111.768C76.1614 110.438 76.0802 109.101 75.8206 107.792C75.6593 107.231 75.6065 106.643 75.6651 106.062C75.7429 105.481 75.9392 104.941 75.567 104.393C75.5056 104.299 75.567 104.115 75.567 103.984C75.567 103.853 75.6733 103.681 75.6283 103.575C75.2192 102.544 75.2724 101.477 75.3011 100.409C75.3011 100.299 75.342 100.147 75.3011 100.078C74.7775 99.415 74.7652 98.6296 74.6998 97.8401C74.6343 97.0507 74.5034 96.2041 74.3684 95.4228C74.3194 95.1283 74.0453 94.8173 74.1026 94.5677C74.1995 94.166 74.2132 93.7487 74.1429 93.3414C74.0725 92.9341 73.9196 92.5454 73.6935 92.1994C73.6526 92.1339 73.6935 92.0235 73.6608 91.9417C73.2518 90.87 73.4727 89.7165 73.1168 88.6202C72.8275 87.5422 72.594 86.45 72.4173 85.3479C72.1822 84.141 71.8216 82.962 71.3415 81.83C70.9815 81.0119 70.4825 80.2512 70.6093 79.2941C70.6093 79.2205 70.552 79.1346 70.5152 79.0528C70.3598 78.7051 70.0735 78.3615 70.0735 78.0138C70.0735 77.5557 69.7299 77.347 69.5745 77.0116C69.416 76.7757 69.2425 76.5503 69.055 76.3367C68.6827 75.7763 68.3228 75.2159 67.9792 74.6432C67.7828 74.32 67.6315 73.9725 67.4474 73.6412C67.0097 72.8558 66.5434 72.0868 66.1262 71.2891C65.6733 70.4068 65.0869 69.5996 64.3877 68.8962C64.3387 68.843 64.2323 68.847 64.1505 68.8225C64.177 68.8889 64.1909 68.9597 64.1914 69.0312C64.1131 69.5738 64.1131 70.1248 64.1914 70.6674C64.2351 71.5342 64.205 72.403 64.1014 73.2647C63.9787 74.3445 64.2078 75.4817 63.6106 76.4921C63.5779 76.5453 63.6719 76.668 63.6924 76.7621C63.7499 76.9233 63.7749 77.0943 63.766 77.2652C63.55 78.1149 63.587 79.0092 63.8723 79.8381C64.1259 80.5744 63.8723 81.4212 64.1341 82.2065C64.2416 82.6598 64.2992 83.1233 64.306 83.5891C64.3837 84.219 64.715 84.8161 64.5105 85.4829C64.4921 85.6901 64.5318 85.8983 64.625 86.0843C65.0648 87.224 65.1712 88.4654 64.9318 89.6634C64.9209 89.749 64.9307 89.8358 64.9604 89.9169C65.2581 90.7315 65.3009 91.6177 65.0831 92.4572C65.0739 92.5104 65.0753 92.5647 65.0872 92.6174C65.0992 92.6701 65.1214 92.72 65.1527 92.764C65.3683 93.1058 65.454 93.5136 65.394 93.9132C65.3307 94.4866 65.3765 95.0668 65.529 95.6231C65.6972 96.1412 65.7543 96.6891 65.6967 97.2307C65.6967 97.7543 65.6967 98.2738 65.6967 98.7974C65.6967 99.321 65.6967 99.7832 65.6967 100.274C65.6811 100.71 65.7154 101.146 65.799 101.575C65.9922 102.34 66.0789 103.129 66.0567 103.918C66.026 104.425 66.026 104.933 66.0567 105.44C66.2359 106.407 66.2703 107.396 66.1589 108.373C66.1359 108.764 66.1676 109.157 66.253 109.539C66.3839 110.701 66.0035 111.85 66.1916 113.012C66.2305 113.332 66.2305 113.656 66.1916 113.977C66.1916 114.112 66.0321 114.235 65.9462 114.386C65.9176 114.431 65.6108 114.435 65.8808 114.513C66.3716 114.648 66.2203 114.922 66.1957 115.253C66.118 116.182 65.8767 117.098 66.1058 118.047C66.2588 118.686 66.229 119.355 66.0198 119.978C65.8603 120.481 65.9912 121.074 65.9339 121.614C65.8521 122.395 65.6558 123.168 65.6149 123.949C65.5003 126.265 64.8827 128.49 64.5023 130.752C64.2978 131.979 63.7783 133.133 63.6842 134.38C63.6842 134.466 63.5369 134.617 63.4756 134.609C63.3407 134.594 63.2173 134.527 63.132 134.421C63.0865 134.29 63.0753 134.149 63.0993 134.012C63.0993 133.746 63.1565 133.484 63.1688 133.222C63.2261 132.143 63.2752 131.067 63.3324 129.987C63.357 129.553 63.5206 129.083 63.4061 128.694C63.2831 128.213 63.2831 127.708 63.4061 127.226C63.4567 127.059 63.4923 126.888 63.5124 126.715C63.5124 125.962 63.4879 125.205 63.4838 124.453C63.4838 123.79 63.4838 123.127 63.4838 122.46C63.4838 121.982 63.3038 121.536 63.5083 121.008C63.6597 120.599 63.4224 120.068 63.3815 119.585C63.357 119.299 63.2547 118.882 63.3815 118.738C63.7251 118.403 63.3324 118.186 63.3283 117.92C63.3283 116.975 62.9193 116.063 63.0993 115.094C63.0993 115.041 63.0543 114.979 63.0543 114.926C63.0543 114.607 63.0297 114.292 63.0543 113.973C63.1022 113.777 63.135 113.577 63.1524 113.376C63.0256 112.324 63.267 111.24 62.8416 110.214C62.7851 109.986 62.774 109.75 62.8088 109.518C62.8652 109.086 62.883 108.649 62.862 108.213C62.7544 107.493 62.7324 106.763 62.7966 106.037C62.875 105.725 62.875 105.397 62.7966 105.084C62.3384 104.135 62.5389 103.145 62.5552 102.176C62.5716 101.207 62.2648 100.18 62.4407 99.1737C61.9048 98.1797 62.3507 97.0793 62.0807 96.0322C61.8762 95.2386 61.9417 94.3756 61.7985 93.5411C61.6496 92.4227 61.5867 91.2946 61.6104 90.1665C61.6104 89.7575 61.7371 89.3688 61.4835 88.9188C61.3036 88.5957 61.459 88.1008 61.459 87.6549C61.459 87.5731 61.459 87.4504 61.4304 87.4177C61.2733 87.3138 61.1093 87.2209 60.9395 87.1396C60.9599 87.275 60.9681 87.4119 60.964 87.5487C60.9397 87.7494 60.8987 87.9477 60.8414 88.1417C60.7309 88.5303 60.6 88.9189 60.4773 89.3075C60.3568 89.8029 60.1911 90.2862 59.9823 90.7513C59.5515 91.5361 59.2464 92.3836 59.0783 93.2629C58.9366 93.8509 58.7645 94.4311 58.5629 95.0014C58.4157 95.4718 58.2603 95.9422 58.1007 96.4126C57.9739 96.7931 57.8308 97.1694 57.6917 97.5539C57.5444 98.0243 57.4585 98.5109 57.2826 98.965C56.9758 99.7503 56.6077 100.511 56.2764 101.288C55.8224 102.352 55.2579 103.379 55.1556 104.561C55.1556 104.749 54.9633 104.921 54.8774 105.105C54.4684 105.98 54.0594 106.86 53.6749 107.739C53.5457 108.062 53.3996 108.377 53.2372 108.684C53.0654 108.974 53.1595 109.42 52.7382 109.567C52.7913 110.484 52.1778 111.097 51.7319 111.793C51.5469 112.093 51.3855 112.408 51.2492 112.733C51.0038 113.294 50.7993 113.871 50.5498 114.427C50.468 114.603 50.3125 114.836 50.1612 114.869C49.609 114.967 49.654 115.396 49.5231 115.777C49.2974 116.622 48.9575 117.433 48.5127 118.186C47.9564 118.971 47.7805 119.875 47.3715 120.693C47.3535 120.744 47.3478 120.797 47.355 120.85C47.3621 120.903 47.3818 120.953 47.4124 120.996C48.1446 121.7 48.3655 122.653 48.5209 123.577C48.6325 124.269 48.8389 124.942 49.1345 125.577C49.2074 125.736 49.2702 125.898 49.3226 126.064C49.5599 126.805 49.7685 127.549 50.0221 128.281C50.2546 128.758 50.2927 129.307 50.1284 129.811C50.1216 129.85 50.1231 129.89 50.133 129.928C50.1429 129.966 50.1609 130.001 50.1857 130.032C50.8238 130.122 51.0038 130.682 51.0038 131.12C51.0862 131.724 51.273 132.31 51.556 132.85C51.8669 133.578 52.2719 134.262 52.6032 134.981C52.9345 135.701 53.0818 136.352 53.6094 136.904C53.7618 137.119 53.874 137.36 53.9408 137.616C54.0267 137.833 54.0348 138.127 54.1862 138.258C54.8734 138.851 55.2006 139.665 55.6383 140.414C56.0975 141.286 56.6327 142.117 57.2376 142.896C57.7197 143.45 58.1612 144.038 58.5589 144.655C58.7593 144.97 59.0497 145.224 59.2624 145.531C59.5933 145.971 59.89 146.436 60.15 146.921C60.3733 147.362 60.5305 147.834 60.6164 148.32C60.6982 148.873 60.3464 149.114 59.7983 148.963C59.2501 148.811 58.7879 148.701 58.2971 148.553C58.1375 148.504 57.9166 148.369 57.888 148.247C57.8267 147.895 57.5281 147.838 57.3195 147.674C56.9845 147.398 56.6801 147.087 56.4114 146.746C55.7405 145.862 55.1843 144.901 54.4398 144.066C53.4826 142.954 52.8609 141.641 52.1246 140.405C51.2779 138.994 50.5825 137.489 49.8462 136.016C49.5599 135.448 49.3308 134.855 49.1017 134.261C49.0122 134.077 48.9863 133.869 49.0281 133.668C49.0691 133.528 49.0744 133.38 49.0437 133.237C49.013 133.094 48.9472 132.961 48.8522 132.85C48.5412 132.466 48.3774 131.983 48.39 131.488C48.39 131.357 48.2878 131.218 48.2509 131.079C48.0055 130.196 47.4329 129.377 47.7069 128.383C47.7194 128.309 47.7128 128.232 47.6878 128.161C47.6628 128.089 47.6201 128.025 47.5637 127.974C47.2079 127.754 47.2079 127.398 47.1547 127.058C46.942 125.853 46.7279 124.646 46.5125 123.438C46.4744 123.208 46.4197 122.981 46.3489 122.759C46.2858 122.629 46.206 122.508 46.1116 122.399C46.0266 122.505 45.9474 122.616 45.8744 122.731C45.6126 123.201 45.5513 123.81 44.995 124.08C44.7414 124.203 44.68 124.403 44.5859 124.641C44.2043 125.431 43.7768 126.199 43.3056 126.94C42.3893 128.388 41.424 129.803 40.4913 131.247C39.976 132.065 39.5056 132.883 38.9779 133.672C38.8306 133.893 38.5075 134 38.3439 134.217C37.628 135.161 37.0554 136.204 36.2128 137.08C35.7751 137.522 35.8364 137.742 36.3396 138.176C36.6056 138.372 36.8008 138.649 36.8959 138.965C36.9818 139.346 37.2681 139.526 37.5258 139.751C37.8816 140.054 38.2211 140.373 38.5729 140.675C38.7543 140.859 38.9561 141.02 39.1742 141.158C39.6765 141.367 40.0952 141.737 40.3645 142.209C40.5224 142.451 40.743 142.644 41.0027 142.77C41.7757 143.232 42.5693 143.653 43.3465 144.107C43.7706 144.357 44.1803 144.63 44.5736 144.925C45.1667 145.363 45.6085 146.042 46.4552 146.066C46.5207 146.066 46.5738 146.173 46.6393 146.218C47.053 146.563 47.495 146.872 47.9605 147.142C48.9218 147.625 49.9158 148.059 50.9179 148.451C51.2492 148.578 51.5397 148.922 51.9814 148.754C52.0755 148.717 52.276 148.819 52.3619 148.913C52.8445 149.466 53.5276 149.617 54.178 149.818C54.8851 149.96 55.583 150.144 56.2682 150.37C57.6631 150.983 59.1315 151.221 60.6082 151.523C60.8978 151.554 61.184 151.612 61.4631 151.695C62.0235 151.887 62.6136 151.977 63.2056 151.961C64.2118 152.022 65.2099 151.895 66.2325 152.133C67.2551 152.37 68.4087 152.296 69.5049 152.354C69.6218 152.361 69.7391 152.35 69.8526 152.321C70.6678 152.104 71.5021 151.967 72.3437 151.912C73.5136 151.822 74.6752 151.634 75.8369 151.458C76.6018 151.339 77.3627 151.175 78.1153 151.008C79.3056 150.742 80.3937 150.1 81.6413 150.038C81.8445 150 82.0322 149.904 82.1812 149.76C82.5763 149.469 83.0193 149.249 83.4902 149.11C84.431 148.77 85.5149 148.701 86.2471 147.883C86.468 147.633 86.7503 147.286 87.0243 147.269C87.9938 147.208 88.6891 146.606 89.4786 146.173C89.8549 145.96 90.1903 145.674 90.5503 145.433C90.9525 145.24 91.3234 144.987 91.6506 144.684C92.346 143.784 93.3645 143.305 94.2194 142.639C95.2423 141.879 96.1682 140.997 96.9764 140.013C97.3288 139.477 97.7971 139.026 98.3467 138.695C98.7875 138.429 99.1513 138.053 99.402 137.603C99.4894 137.458 99.5893 137.322 99.7006 137.194C100.457 136.559 101.09 135.79 101.566 134.924C101.807 134.474 102.265 134.143 102.556 133.697C103.116 132.854 103.615 131.975 104.155 131.12C104.515 130.555 104.973 130.04 105.272 129.455C105.742 128.58 106.119 127.66 106.552 126.768C106.753 126.359 107.014 125.987 107.215 125.577C107.415 125.168 107.554 124.759 107.738 124.35C107.915 124.046 108.074 123.732 108.213 123.41C108.593 122.272 108.945 121.127 109.297 119.978C109.767 118.444 110.258 116.914 110.683 115.364C110.97 114.329 111.338 113.318 111.285 112.189C111.229 111.517 111.328 110.841 111.575 110.214C111.809 109.79 111.906 109.304 111.853 108.823C111.857 108.59 111.894 108.358 111.964 108.136C112.005 107.91 112.033 107.682 112.05 107.453C112.074 106.954 111.771 106.414 112.242 105.96C112.279 105.927 112.242 105.776 112.213 105.714C112.029 105.452 112.099 105.174 112.082 104.896C111.988 103.444 112.401 101.992 112.082 100.54C112.054 100.409 112.136 100.258 112.136 100.131C112.136 99.3413 112.136 98.552 112.066 97.7666C112.029 97.1284 111.936 96.4946 111.788 95.8726C111.579 95.0545 112.001 94.1301 111.489 93.3242C111.416 93.2097 111.534 92.9889 111.522 92.8171C111.559 92.3921 111.512 91.9639 111.383 91.5572C111.217 91.2256 111.111 90.8668 111.072 90.4979C110.986 89.7155 110.849 88.9393 110.663 88.1744C110.463 87.4341 110.634 86.5833 110.037 85.9492C109.972 85.8797 109.996 85.7243 109.98 85.6057C109.829 84.7058 109.661 83.8221 109.039 83.0899C108.892 82.874 108.812 82.6191 108.81 82.3577C108.725 81.4863 108.481 80.638 108.09 79.8545C107.91 79.4455 107.427 79.1714 107.648 78.6274C107.654 78.569 107.646 78.5099 107.624 78.4552C107.603 78.4005 107.569 78.3517 107.526 78.3124C107.018 77.9034 106.924 77.3306 106.679 76.7907C106.168 75.6617 105.861 74.4509 105.186 73.3751C104.617 72.4957 103.959 71.6041 103.705 70.5406C103.626 70.3581 103.511 70.1937 103.366 70.0578C103.026 69.6488 102.687 69.2397 102.331 68.8552C102.171 68.6794 102.008 68.5321 102.355 68.3971C102.323 68.3048 102.279 68.2168 102.224 68.1352C101.995 67.8816 101.729 67.6608 101.521 67.3908C100.854 66.5114 100.38 65.4724 99.447 64.8015C99.32 64.6837 99.2136 64.5454 99.132 64.3925C98.7117 63.661 98.1928 62.9907 97.5899 62.4004C97.4031 62.2224 97.2295 62.031 97.0704 61.8278C96.4691 61.157 95.9456 60.3797 95.2379 59.8521C94.6769 59.4452 94.1863 58.9492 93.7858 58.3837C93.5957 58.1672 93.3785 57.976 93.1395 57.815C92.4446 57.2967 91.7795 56.7397 91.1475 56.1463C90.7291 55.6634 90.2134 55.2744 89.634 55.005C89.4396 54.9394 89.2612 54.8333 89.1104 54.6941C88.3537 53.8555 87.2943 53.422 86.4516 52.7062C86.337 52.5813 86.2095 52.4689 86.0712 52.3708C85.5067 52.0886 84.9259 51.835 84.3573 51.5527C83.7888 51.2705 83.212 50.9678 82.6189 50.7346C82.0258 50.5015 81.6167 50.0718 81.0277 49.855C79.9806 49.446 79.0479 48.7916 77.8944 48.6688C77.7469 48.6508 77.6062 48.5959 77.4854 48.5093C77.1772 48.2789 76.7978 48.1645 76.4137 48.1861C76.2582 48.1861 76.0987 48.0675 75.9433 48.0061C74.6609 47.4902 73.3414 47.0718 71.996 46.7544C71.2066 46.5786 70.3844 46.5704 69.5867 46.4477C68.2573 46.2431 66.9361 46.0061 65.6108 45.7934C65.5658 45.7934 65.5045 45.8711 65.4472 45.912L65.619 45.9609C65.5903 45.9977 65.5658 46.0714 65.5413 46.0714C64.9807 46.1013 64.4185 46.0601 63.8682 45.9487C63.4244 45.8084 62.9584 45.7515 62.4939 45.781C61.8558 45.8055 61.2177 45.8218 60.5755 45.8587C60.027 45.8563 59.4795 45.903 58.9393 45.9979C58.3707 46.1369 57.8471 46.3823 57.2376 46.1615C57.0781 46.1042 56.8286 46.2432 56.6486 46.2923C56.4687 46.3414 56.1414 46.415 55.8837 46.464C54.8857 46.6686 53.8712 46.8077 52.8936 47.0818C51.3597 47.5154 49.8421 48.0308 48.3286 48.538C47.9728 48.6566 47.6578 49.0288 47.3224 49.0288C46.5698 49.0288 46.0952 49.5523 45.5144 49.8468C45.2035 49.9941 44.8804 50.125 44.5695 50.2559C44.0664 50.489 43.551 50.6895 43.0765 50.9635C42.2257 51.4585 41.4403 52.0312 40.565 52.5138C39.6896 52.9965 38.9533 53.8515 37.9635 54.2483C37.5544 55.0214 36.769 55.3445 36.1718 55.8845C35.4072 56.6828 34.5691 57.4073 33.6685 58.0483C33.372 58.25 33.1415 58.5345 33.0058 58.8664C32.6839 59.5244 32.2134 60.0986 31.6314 60.5435C31.4869 60.6389 31.3501 60.7455 31.2224 60.8625C30.6702 61.5292 30.1384 62.2083 29.5862 62.8792C29.484 63.0019 29.2713 63.0754 29.2263 63.2063C28.9767 63.9958 28.3468 64.5439 27.95 65.2515C27.5118 65.9666 27.0238 66.6501 26.4897 67.2968C25.8353 68.1435 25.5817 69.1579 25.2626 70.1601C25.2626 70.1928 25.3199 70.2828 25.3199 70.2787C25.5121 70.1928 25.7044 70.0988 25.8925 70.0047C25.6839 69.6529 26.0357 69.6529 26.1871 69.5261C26.6943 69.0966 27.3651 68.753 27.6637 68.2089C28.0728 67.4767 28.7886 67.1332 29.2549 66.5114C29.3285 66.4133 29.5003 66.3887 29.6312 66.3315C29.5945 66.4731 29.5424 66.6103 29.4758 66.7405C29.2058 67.1946 28.9154 67.6362 28.6577 68.0821C28.3059 68.6548 27.9541 69.2274 27.6105 69.8042C27.5932 69.8398 27.5841 69.8791 27.5841 69.9188C27.5841 69.9585 27.5932 69.9976 27.6105 70.0332C27.6443 70.0578 27.6837 70.0737 27.725 70.0794C27.7664 70.0851 27.8086 70.0805 27.8478 70.066C28.0751 69.9124 28.2923 69.7443 28.4981 69.5629C28.6904 69.3911 29.0217 69.2029 29.0258 69.0188C29.0258 68.6343 29.3612 68.7242 29.4962 68.6465C30.1302 68.2784 30.6088 67.6894 31.3206 67.4194C31.9178 67.2067 32.4332 66.7977 33.0999 66.7363C33.3577 66.6773 33.5967 66.5552 33.7953 66.3806C34.1593 66.1229 34.4702 65.7793 34.8547 65.5625C35.2975 65.338 35.7537 65.1411 36.2209 64.9733C36.8726 64.7538 37.5047 64.4802 38.1107 64.1552C38.4767 63.8867 38.8946 63.6973 39.3378 63.599C40.4586 63.4476 41.3585 62.6049 42.5284 62.6131C42.7038 62.5806 42.8667 62.4999 42.9988 62.38C43.6369 61.971 44.2832 61.5947 45.1054 61.7665C45.2485 61.7951 45.4163 61.6315 45.584 61.5947C46.7702 61.3247 47.5638 61.6355 47.8051 63.0631C47.8255 63.1776 47.8337 63.2923 47.8501 63.4068L48.0873 63.1778C48.3123 62.9569 48.5864 62.7892 48.5741 62.3924C48.562 62.1161 48.6136 61.8405 48.725 61.5873C48.8364 61.3341 49.0044 61.1099 49.2163 60.932C49.4793 60.7005 49.7165 60.4412 49.9239 60.1589C50.2985 59.6254 50.8417 59.2337 51.466 59.0464C51.81 58.8862 52.1799 58.7891 52.5582 58.7599C52.9672 58.7927 53.0245 58.2446 53.4295 58.3305C53.577 58.3369 53.722 58.2905 53.8385 58.1997C54.6566 57.6352 55.6014 57.6515 56.5054 57.5124C57.1558 57.4143 57.8308 57.5124 58.4893 57.4633C59.8366 57.3303 61.1922 57.6159 62.3712 58.2814C63.2157 58.7469 63.9683 59.3623 64.5923 60.0975C65.2353 60.7924 65.9182 61.4494 66.6375 62.0651C66.8967 62.2555 67.1209 62.4893 67.3001 62.7563C67.6765 63.5744 68.2737 64.278 68.3514 65.2106C68.3613 65.6453 68.4329 66.0763 68.5641 66.4909C68.7652 66.9695 68.8628 67.4854 68.8504 68.0044C68.8357 68.234 68.8811 68.4635 68.9823 68.6701C69.0835 68.8767 69.2368 69.0532 69.4272 69.1824C69.9504 69.6027 70.3796 70.128 70.687 70.7245C70.957 71.2113 71.2393 71.6899 71.5542 72.144C72.0634 72.7861 72.4037 73.5454 72.5441 74.3528C72.5867 74.5196 72.6588 74.6776 72.7568 74.8192C72.9327 75.1546 73.1249 75.4776 73.2927 75.813C73.7549 76.7129 74.2825 77.5843 74.4584 78.6028C74.4802 78.6892 74.5223 78.769 74.5812 78.8359C74.962 79.3623 75.1693 79.9942 75.1743 80.6438C75.1714 80.9683 75.2043 81.2921 75.2724 81.6093C75.5587 82.5215 75.8942 83.4213 76.201 84.3334C76.3052 84.6338 76.3872 84.9414 76.4464 85.2538C76.5855 86.031 76.6755 86.8205 76.8309 87.5936C76.9413 88.1336 77.195 88.6489 77.2399 89.1889C77.3954 90.416 77.6899 91.6718 77.3299 92.9276C77.2931 93.0544 77.3299 93.3121 77.3708 93.3366C77.9189 93.5616 77.7062 94.0197 77.6899 94.3838C77.6572 95.1037 78.0089 95.8236 77.6899 96.5395C77.923 96.9199 77.5345 97.4271 77.9517 97.7666C77.9694 98.5107 78.1076 99.2468 78.3607 99.9466C78.41 100.289 78.4004 100.638 78.3321 100.977C78.9048 101.162 78.508 101.624 78.553 101.922C78.7084 102.945 78.7248 103.968 78.7984 105.019C78.8475 105.714 78.9293 106.41 78.9579 107.109C78.9988 108.218 79.367 109.302 79.2115 110.431C79.1624 110.766 79.2361 111.118 79.2115 111.461C79.2224 111.914 79.1868 112.366 79.1052 112.811C78.9947 113.22 79.2034 113.756 79.2729 114.231C79.2874 114.288 79.2874 114.349 79.2729 114.406C78.8638 115.184 79.0356 116.043 78.9088 116.861C78.8229 117.433 78.7534 118.014 78.6634 118.591C78.5511 119.055 78.4867 119.529 78.4712 120.006C78.4529 120.529 78.3719 121.049 78.2299 121.553C78.1112 122.272 77.9189 123.152 77.7349 124.031ZM91.851 180.046C91.8183 180.357 91.8019 180.672 91.7529 180.983C91.7038 181.294 91.6097 181.441 91.3438 181.089C91.1679 180.86 90.9348 180.619 90.6485 180.991C90.5298 181.15 90.3008 181.4 90.3458 181.469C90.4782 181.651 90.6579 181.792 90.8652 181.878C90.9988 181.922 91.1356 181.954 91.2743 181.977C91.4624 182.038 91.5074 182.165 91.3438 182.291C91.1802 182.418 91.3111 182.529 91.3929 182.631C91.5442 182.815 91.5933 183.04 91.3929 183.155C91.3004 183.188 91.2013 183.199 91.1037 183.186C91.0062 183.173 90.9132 183.137 90.8325 183.081C90.5341 182.791 90.2842 182.456 90.0922 182.087C89.8253 181.507 89.5971 180.91 89.409 180.3C89.2264 179.811 89.1082 179.301 89.0573 178.782C89.0872 177.948 88.9292 177.117 88.595 176.352C88.5058 176.106 88.4805 175.842 88.5214 175.583C88.6114 174.356 88.0837 173.239 88.0469 172.041C88.0478 172.027 88.0458 172.012 88.0408 171.999C88.0359 171.986 88.0282 171.973 88.0183 171.963C87.6379 171.628 87.7647 171.211 87.8342 170.81C87.944 170.271 87.8477 169.71 87.5642 169.239C87.4327 168.928 87.3929 168.586 87.4497 168.253C87.5985 166.915 87.4461 165.561 87.0038 164.29C86.9336 164.013 86.9087 163.727 86.9302 163.443C86.9302 163.152 86.9302 162.862 86.9302 162.571C86.9916 161.532 86.6316 160.559 86.4803 159.557C86.3414 158.554 86.2758 157.542 86.2839 156.53C86.2839 155.425 86.1121 154.325 86.2144 153.217C86.1966 152.785 86.157 152.355 86.0958 151.928C86.0958 151.482 86.059 151.441 85.6417 151.617C84.1733 152.235 82.7784 152.947 81.1709 153.303C79.7024 153.63 78.3075 154.227 76.8063 154.53C76.1346 154.696 75.4507 154.808 74.7611 154.865C73.1249 154.955 73.2313 154.951 73.3295 156.428C73.4276 158.002 73.3295 159.585 73.5872 161.156C73.6665 161.991 73.7006 162.829 73.6894 163.668C73.7181 164.294 73.898 164.956 73.759 165.541C73.6442 166.291 73.6249 167.053 73.7017 167.807C73.7017 168.548 73.4359 169.288 73.7835 170.049C73.9185 170.343 73.7058 170.785 73.6772 171.161C73.6526 171.472 73.6772 171.783 73.6526 172.09C73.5217 173.317 73.9226 174.601 73.4195 175.816C73.3889 175.895 73.3889 175.983 73.4195 176.062C73.6526 176.663 73.5094 177.289 73.444 177.874C73.3581 178.655 73.1372 179.436 73.5667 180.193C73.6087 180.269 73.6337 180.354 73.64 180.441C73.6464 180.527 73.6339 180.615 73.6035 180.696C73.2599 181.334 73.4358 182.013 73.4072 182.672C73.4039 183.194 73.4311 183.716 73.489 184.234C73.489 184.406 73.6199 184.586 73.5872 184.742C73.3213 185.969 73.7713 187.167 73.9226 188.37C74.0126 189.082 74.3316 189.761 74.483 190.472C74.6441 191.257 74.9689 191.998 75.436 192.649C76.4996 194.223 78.054 195.164 79.6001 196.134C79.681 196.168 79.7679 196.186 79.8558 196.186C79.9437 196.186 80.0306 196.168 80.1115 196.134C80.3855 196.019 80.5205 195.929 80.7618 196.285C80.905 196.506 81.4163 196.453 81.7272 196.6C81.9357 196.704 82.164 196.762 82.3968 196.77C82.6296 196.779 82.8615 196.737 83.077 196.649C83.4632 196.463 83.8782 196.344 84.3042 196.297C84.7564 196.258 85.2058 196.191 85.6499 196.097C85.917 196.026 86.1918 195.989 86.468 195.986C87.1511 196.08 87.6951 195.753 88.2801 195.5C88.865 195.246 89.315 194.972 89.8345 194.71C90.0259 194.644 90.2097 194.558 90.3826 194.452C91.2007 193.757 92.0187 193.045 92.8368 192.334C92.9748 192.218 93.0924 192.079 93.1845 191.925C93.8103 190.832 94.4117 189.728 95.0457 188.652C95.3361 188.149 95.6101 187.634 95.9456 187.163C96.281 186.693 96.6614 186.345 97.0132 185.936C97.0612 185.87 97.0818 185.788 97.0704 185.707C96.8127 184.852 97.23 184.071 97.5449 183.388C98.2307 182.022 98.5786 180.511 98.5594 178.982C98.5594 178.896 98.5594 178.778 98.5839 178.725C99.038 178.193 98.9357 177.551 98.8743 176.962C98.7434 176.218 98.7434 175.456 98.8743 174.712C98.8989 174.61 98.8253 174.487 98.8253 174.372C98.8253 174.086 98.8253 173.796 98.8253 173.509C98.8196 173.312 98.7977 173.115 98.7598 172.92C98.7271 172.753 98.5757 172.552 98.6289 172.425C98.8299 171.841 98.8081 171.203 98.5676 170.634C98.3589 170.004 98.3344 169.312 98.1258 168.683C97.7926 167.742 97.12 166.96 96.2401 166.49C95.4224 166.021 94.4791 165.816 93.5404 165.905C93.254 165.938 92.9636 165.934 92.6732 165.942C91.2538 165.975 90.5216 166.94 90.8652 168.331C90.9102 168.499 90.9797 168.662 91.0247 168.834C91.0959 169.026 91.14 169.227 91.1557 169.431C91.1229 170.981 91.6342 172.462 91.7161 174C91.7815 175.272 91.9656 176.532 92.0106 177.8C92.0017 178.551 91.9484 179.301 91.851 180.046V180.046ZM28.1014 162.375C27.6642 162.425 27.2368 162.539 26.8334 162.715C26.3583 163.051 25.9257 163.444 25.5449 163.884C24.9886 164.453 24.51 165.075 24.5468 165.93C24.5429 166.07 24.5123 166.209 24.4568 166.339C23.8596 167.844 23.9332 169.431 23.8719 171.006C23.8892 171.145 23.9194 171.282 23.9619 171.415C24.105 172.368 24.2236 173.325 24.3709 174.278C24.4618 174.996 24.6249 175.704 24.8577 176.389C25.5408 178.123 26.3016 179.825 27.0419 181.539C27.0951 181.666 27.177 181.838 27.2915 181.878C27.7292 182.042 27.8151 182.357 27.8151 182.782C27.8343 183.012 27.918 183.232 28.0564 183.416C28.6536 184.271 29.2835 185.102 29.8889 185.953C30.1057 186.255 30.2121 186.771 30.4902 186.869C30.8546 187.032 31.1849 187.262 31.4637 187.548C32.0364 188.108 32.47 188.808 33.2104 189.184C33.305 189.253 33.3879 189.338 33.4558 189.433C34.6175 190.661 35.8201 191.859 37.4767 192.44C37.6217 192.474 37.76 192.532 37.8857 192.612C38.5484 193.168 39.3665 193.409 40.1355 193.749C40.4809 193.892 40.8669 193.902 41.2195 193.777C41.5999 193.675 42.0375 193.45 42.4875 193.659C42.7701 193.742 43.0677 193.762 43.3588 193.716C43.9723 193.688 44.5859 193.63 45.1954 193.577C45.2716 193.57 45.3435 193.539 45.3999 193.487C46.083 192.784 46.7661 192.076 47.4451 191.364C47.7757 191.046 48.0795 190.701 48.3532 190.333C48.8604 189.581 48.8809 188.697 48.9463 187.826C48.9831 187.278 49.0118 186.865 48.57 186.431C48.3039 186.086 48.1167 185.687 48.0219 185.261C47.8296 184.717 47.7314 184.136 47.5065 183.625C47.0524 182.553 46.537 181.51 46.0544 180.451C46.0101 180.319 45.9879 180.181 45.9889 180.042C45.91 179.241 45.8881 178.436 45.9234 177.633C45.9562 177.285 45.6699 177.027 45.8866 176.622C46.4383 175.492 46.7621 174.265 46.8398 173.01C46.9175 172.241 47.0402 171.48 47.167 170.72C47.2733 170.081 47.4738 169.46 47.531 168.822C47.6456 167.46 48.1651 166.236 48.6805 165.001C48.8475 164.61 48.959 164.197 49.0118 163.774C49.0118 163.668 48.8727 163.537 49.0118 163.365C49.3568 162.866 49.5925 162.3 49.7031 161.704C49.8242 161.319 49.9888 160.948 50.1939 160.6C50.4107 160.191 50.4311 159.618 50.9833 159.414C50.8688 158.739 51.2574 158.215 51.5315 157.659C51.6535 157.343 51.7984 157.037 51.9651 156.743C52.7136 155.667 53.4867 154.607 54.2516 153.544C54.4153 153.315 54.3703 153.2 54.088 153.106C53.3845 152.873 52.5582 152.959 52.01 152.317C51.0202 152.26 50.3739 151.388 49.3635 151.265C48.7295 151.184 48.2141 150.472 47.4369 150.668C47.396 150.668 47.3265 150.632 47.2856 150.595C46.6256 150.026 45.8923 149.549 45.1054 149.175C44.3977 148.828 43.7637 148.357 43.0806 147.948C42.0539 147.347 40.9699 146.84 40.1682 145.903C39.9105 145.604 39.7592 145.674 39.5955 146.038C39.0556 147.163 39.072 148.492 38.2866 149.531C38.0739 149.873 37.9217 150.25 37.8366 150.644C37.7303 151 37.7017 151.38 37.6199 151.748C37.5176 152.202 37.3744 152.648 37.2804 153.106C37.1372 153.818 37.1822 154.591 36.4623 155.086C36.3366 155.211 36.2547 155.373 36.2291 155.548C35.9019 157.103 35.6401 158.665 35.1901 160.195C34.9919 161.045 34.8904 161.915 34.8875 162.788C34.8302 163.656 34.8874 164.531 34.822 165.398C34.7601 165.886 34.67 166.369 34.552 166.846C34.5263 166.957 34.5126 167.071 34.5111 167.186C34.5357 167.824 34.5929 168.458 34.5929 169.092C34.6116 169.7 34.5828 170.308 34.507 170.912C34.3066 172.278 34.7484 173.661 34.3639 175.002C34.3121 175.2 34.2968 175.405 34.3189 175.608C34.3659 176.057 34.2854 176.511 34.0864 176.917C33.8875 177.323 33.5782 177.664 33.194 177.902C33.0304 178.017 33.0345 178.205 32.785 177.943C32.1982 177.331 31.7859 176.572 31.5906 175.747C31.4065 174.892 31.3778 174.008 31.2388 173.145C31.1147 172.431 31.0927 171.702 31.1733 170.981C31.2224 170.572 31.5251 170.143 31.1201 169.754C31.1001 169.716 31.0896 169.673 31.0896 169.629C31.0896 169.586 31.1001 169.543 31.1201 169.505C31.2121 169.373 31.2648 169.217 31.272 169.057C31.2793 168.896 31.2408 168.736 31.161 168.597C31.1064 168.429 31.0859 168.252 31.1006 168.077C31.1154 167.901 31.1651 167.73 31.2469 167.574C31.3077 167.447 31.3345 167.306 31.3247 167.165C31.296 166.204 31.3247 165.243 31.3574 164.302C31.3574 163.426 31.2142 163.144 30.3593 162.882C29.6721 162.686 28.9195 162.563 28.1014 162.375ZM45.9398 31.3254C45.9398 31.7672 45.9398 32.2579 45.9398 32.7528C45.9398 32.8469 46.0544 33.0189 46.0953 33.0107C46.2256 32.9937 46.3457 32.9314 46.4348 32.8347C46.6393 32.5566 46.7906 32.2375 46.9992 31.9593C47.3306 31.5257 47.711 31.1413 48.0382 30.6873C48.5127 30.0614 48.6477 29.141 49.6212 28.961C49.7276 28.9405 49.8053 28.7567 49.8994 28.6462C49.9935 28.5358 50.0998 28.3272 50.2471 28.2372C51.0202 27.8527 51.8096 27.4925 52.595 27.1285C52.775 27.0467 52.9672 26.9855 53.1513 26.9078C53.4867 26.7646 53.5317 26.4987 53.454 26.1838C53.3231 25.652 53.229 25.112 53.0899 24.5843C53.0449 24.4125 52.8036 24.2243 52.8445 24.1098C53.0286 23.5658 52.775 23.0955 52.7095 22.5882C52.6208 22.0444 52.6403 21.4884 52.7668 20.9521C53.0491 19.9295 53.4499 18.9394 53.818 17.9414C53.9107 17.707 54.0286 17.4834 54.1698 17.2747C54.313 17.0579 54.5789 16.8862 54.6402 16.6489C54.7802 16.2327 55.0132 15.854 55.3215 15.5414C55.6298 15.2288 56.0054 14.9906 56.4196 14.845C56.5218 14.8081 56.5668 14.6323 56.6527 14.5342C56.7983 14.3485 56.9628 14.1784 57.1436 14.0269C57.299 13.9123 57.5526 13.9206 57.6999 13.802C58.6079 13.1025 59.7983 13.1311 60.78 12.6034C61.1241 12.4368 61.5109 12.3797 61.8885 12.4398C62.4039 12.5216 62.907 12.3784 63.4265 12.5093C64.4287 12.7629 65.3122 13.356 66.3716 13.45C66.6801 13.5321 66.962 13.6928 67.1897 13.9164C67.6479 14.2764 68.0814 14.6651 68.5232 15.0455C68.7299 15.208 68.9266 15.3828 69.1122 15.569C69.5581 16.0721 69.963 16.6161 70.4293 17.0947C70.6769 17.3416 70.8389 17.6612 70.8916 18.0069C71.0225 18.6572 71.2229 19.2954 71.3988 19.9376C71.534 20.2844 71.6301 20.6452 71.6851 21.0134C71.6693 21.5351 71.6228 22.0555 71.546 22.5719C71.501 23.0954 71.591 23.1732 72.0655 22.9809C72.2195 22.8994 72.3882 22.8496 72.5616 22.8341C72.7351 22.8187 72.9099 22.8379 73.0758 22.8908C74.2416 23.2999 75.4238 23.6517 76.61 23.9953C77.0696 24.0922 77.4939 24.3129 77.8371 24.6335C78.4589 25.2879 79.3015 25.5701 80.1033 25.9137C80.4141 26.0487 80.5123 25.9586 80.4346 25.6273C80.2054 24.8729 80.2429 24.0626 80.5409 23.3326C80.6535 22.9998 80.683 22.6446 80.6269 22.2978C80.5246 21.6066 80.3119 20.9316 80.2178 20.2526C80.1096 19.5016 80.0441 18.745 80.0215 17.9865C80.0215 17.2666 80.1442 16.5343 80.0665 15.8266C79.9069 14.3459 80.2055 12.8488 79.8742 11.3763C79.8374 11.2167 79.9478 11.0326 79.9642 10.8608C79.9887 10.599 79.9969 10.3332 80.001 10.0714C80.001 9.72784 79.9642 9.38014 80.001 9.04063C80.0664 8.44752 80.0869 8.4474 79.5061 8.30423C79.1952 8.22651 78.8884 8.12842 78.5693 8.07934C77.1786 7.86663 75.7919 8.16534 74.4052 8.18579C73.8285 8.18579 73.2517 8.22254 72.675 8.22254C72.1854 8.15739 71.6899 8.14913 71.1983 8.19798C70.7361 8.31251 70.1962 7.99341 69.8076 8.46382C69.7667 8.50881 69.6399 8.50063 69.5581 8.46382C68.5261 8.25867 67.4649 8.24754 66.4289 8.43106C65.8835 8.46494 65.3363 8.45416 64.7927 8.3985C64.0237 8.3985 63.2547 8.39838 62.4898 8.48019C62.0071 8.52519 61.5408 8.7502 61.0663 8.41888C60.9722 8.35343 60.7841 8.39024 60.6573 8.41888C60.3916 8.50832 60.1175 8.57009 59.8392 8.60303C58.882 8.60303 57.9371 8.74206 57.0004 8.7666C55.8428 8.79524 54.677 8.76649 53.5194 8.85648C53.2117 8.93256 52.8956 8.96968 52.5786 8.96693C51.5519 8.79104 50.5334 8.96696 49.5272 8.99969C48.6845 8.99969 47.891 9.46183 47.0238 9.22458C46.9297 9.19595 46.7007 9.35962 46.6638 9.47824C46.6109 9.70043 46.5929 9.92959 46.6107 10.1573C46.6661 10.5343 46.6661 10.9174 46.6107 11.2944C46.4531 11.8479 46.4531 12.4344 46.6107 12.9879C46.7116 13.436 46.6789 13.9039 46.5166 14.3336C46.457 14.5014 46.4415 14.6816 46.4716 14.8571C46.602 15.5326 46.602 16.2269 46.4716 16.9024C46.3804 17.3046 46.3487 17.7181 46.3775 18.1295C46.4806 18.4928 46.4471 18.8815 46.2834 19.2218C46.0503 19.5531 46.6925 19.9866 46.1116 20.2157C46.1116 20.2443 46.1484 20.2976 46.1771 20.3057C46.5534 20.3794 46.4021 20.6371 46.3775 20.858C46.308 21.5534 46.2098 22.2527 46.1893 22.9522C46.1893 23.5044 46.3611 24.077 46.2793 24.6129C46.0608 25.7015 45.9948 26.8154 46.083 27.9222C46.0869 27.9507 46.0869 27.9796 46.083 28.0081C46.0012 29.088 45.9644 30.1842 45.9275 31.3254H45.9398ZM72.5727 26.1264C71.9777 26.1604 71.4197 26.4262 71.0184 26.8668C70.3353 27.6113 70.4989 28.3926 70.863 29.1248C71.2965 29.996 71.7301 30.8917 72.5523 31.5175C72.8466 31.7986 73.12 32.1009 73.3704 32.4217C73.6935 32.7489 73.9921 33.1251 74.5648 32.9901C74.7659 32.9873 74.9611 33.0587 75.1129 33.1907C75.5667 33.5164 75.9043 33.9787 76.0765 34.5101C76.2487 35.0414 76.2465 35.6139 76.0701 36.1438C75.9106 36.6429 75.7224 37.1338 75.5711 37.6328C75.5095 37.9047 75.5533 38.1898 75.6937 38.4305C75.976 39.1096 76.5855 39.7884 76.1028 40.627C76.0928 40.6488 76.0877 40.6727 76.0877 40.6967C76.0877 40.7207 76.0928 40.7443 76.1028 40.7662C76.3261 41.2061 76.6007 41.618 76.9209 41.9933C77.6264 42.7004 78.1828 43.5418 78.5571 44.4679C78.8434 45.102 79.0807 45.7606 79.9601 45.736C80.0419 45.736 80.1237 45.7973 80.2055 45.8341C80.9009 46.1163 81.6085 46.3824 82.2957 46.6891C82.6829 46.879 83.0598 47.0893 83.4247 47.3191C83.9074 47.5931 84.3696 47.9163 84.8768 48.1372C85.384 48.3581 86.0467 48.3131 86.3289 48.6485C86.7134 49.1066 87.3679 48.9553 87.6542 49.4666C87.6941 49.5009 87.7424 49.5239 87.7942 49.5333C87.846 49.5426 87.8994 49.538 87.9488 49.5197C88.0175 49.4311 88.0523 49.3207 88.0469 49.2087C88.0469 48.6606 88.0469 48.1166 88.0469 47.5725C88.0469 46.8485 88.2801 46.1206 88.0142 45.4007C88.0037 45.3425 88.0037 45.2829 88.0142 45.2247C88.0142 44.1612 88.051 43.0977 88.0592 42.0301C88.0592 41.5065 88.0592 40.9788 88.0142 40.4552C87.9692 39.8457 87.8138 39.2281 87.826 38.6309C87.8383 38.0337 87.2616 37.4448 87.732 36.8189C87.732 36.8189 87.732 36.7616 87.732 36.737C87.552 36.2503 87.3638 35.7718 87.2043 35.285C87.102 34.9823 87.0489 34.6673 86.967 34.3605C86.8852 34.0537 86.8034 33.7428 86.7093 33.4401C86.5907 33.0638 86.4434 32.6998 86.3248 32.3234C86.0548 31.444 85.6295 30.6218 85.4331 29.7178C85.3536 29.4966 85.2265 29.2955 85.0609 29.1288C84.5451 28.5423 84.0604 27.9294 83.6088 27.2923C83.3756 26.92 83.1997 26.8832 82.8561 27.0386C82.6721 27.1204 82.4471 27.1654 82.2875 27.2513C82.1689 27.3086 81.9767 27.4312 81.9849 27.5008C81.9968 27.6957 82.078 27.88 82.2139 28.0203C83.0607 28.6543 83.5474 29.1819 83.6906 30.0082C83.7876 30.4605 83.7224 30.9326 83.5065 31.3418C82.9952 32.1026 81.3467 32.0412 80.86 31.2681C80.2338 30.3198 79.4574 29.4798 78.5612 28.781C78.1125 28.4308 77.6057 28.1622 77.064 27.9875C76.7792 27.9223 76.5106 27.7999 76.2746 27.6276C75.2438 26.6418 74.0371 26.2573 72.5604 26.1264H72.5727ZM42.9743 34.5201C42.8802 34.3196 42.8188 33.9718 42.6593 33.9187C42.5339 33.9033 42.4068 33.9132 42.2853 33.9476C42.1637 33.982 42.0503 34.0404 41.9516 34.1192C41.659 34.3505 41.3854 34.6048 41.1336 34.88C40.6795 35.3136 40.4136 35.923 39.8451 36.2543C39.1865 36.6347 38.9493 37.3014 38.6957 37.96C38.6343 38.1195 38.5811 38.2833 38.5197 38.4469C38.2369 39.1119 37.9991 39.7952 37.808 40.4921C37.6142 41.756 37.1736 42.9693 36.5113 44.0631C36.3165 44.3903 36.16 44.739 36.045 45.1021C35.7546 45.8956 35.5133 46.7054 35.1983 47.4867C34.8798 48.1112 34.713 48.8022 34.7115 49.5033C34.6875 49.8211 34.5939 50.1297 34.4375 50.4073C34.3516 50.6241 34.1634 50.8164 34.0898 51.0169C33.9548 51.4259 33.9098 51.8798 33.7503 52.2847C33.5908 52.6897 33.3412 53.013 33.1613 53.3934C33.059 53.6184 32.8831 53.9373 33.2022 54.0887C33.3412 54.1541 33.6603 54.011 33.8035 53.8678C34.2125 53.4587 34.6216 53.0987 35.002 52.6856C35.6564 51.9698 36.5482 51.4585 37.3458 50.8858C37.7017 50.6281 38.0821 50.4031 38.438 50.1454C38.7938 49.8877 39.1865 49.5074 39.6037 49.2578C40.6263 48.6484 41.7389 48.2148 42.7247 47.5112C43.2401 47.139 43.9519 47.0736 44.5777 46.7586C45.2854 46.3946 45.9439 45.9037 46.7702 45.7728C47.0726 45.7138 47.3534 45.574 47.5824 45.3679C47.8115 45.1619 47.9803 44.8975 48.0709 44.603C48.2073 44.2229 48.4398 43.8847 48.7459 43.6213C49.339 43.2123 49.793 42.7459 49.8258 41.9851C49.8258 41.707 49.9689 41.437 50.0139 41.167C50.0333 41.0352 50.0104 40.9006 49.9485 40.7826C49.1795 39.355 50.1857 37.7188 51.1756 36.9989C52.1145 36.3187 53.0081 35.5782 53.8507 34.7819C54.3246 34.3467 54.6663 33.7866 54.8366 33.1661C54.8979 32.9411 54.902 32.663 55.0452 32.5076C55.2691 32.1994 55.4099 31.8388 55.4542 31.4604C55.5769 30.99 55.1351 30.0941 54.8243 30.1432C54.2925 30.225 53.6953 30.0123 53.2331 30.4582C53.0829 30.5962 52.9117 30.7096 52.7259 30.7937C51.8383 31.2265 51.0827 31.8889 50.5375 32.7121C50.2772 33.131 49.9513 33.5053 49.5721 33.8206C48.2059 34.7737 47.1997 36.0744 46.0667 37.2565C45.6576 37.6656 45.3017 38.132 44.909 38.5656C44.6922 38.8028 44.5409 38.6842 44.5 38.4305C44.365 37.8783 43.8046 37.4529 44.001 36.7944C44.001 36.7535 43.9028 36.6635 43.8333 36.6144C43.0929 36.0827 42.5979 35.4977 42.962 34.5201H42.9743ZM84.6968 4.33242H84.6641C84.6908 4.10277 84.6908 3.87082 84.6641 3.64116C84.566 3.23212 84.1896 3.58389 83.9851 3.43664C83.8947 3.36136 83.7959 3.29695 83.6906 3.2445C83.6524 3.22841 83.6114 3.22013 83.5699 3.22013C83.5285 3.22013 83.4875 3.22841 83.4493 3.2445C83.2272 3.43903 82.9492 3.55798 82.6551 3.58444C82.3611 3.6109 82.0663 3.54346 81.8131 3.3917C81.6986 3.32216 81.5308 3.23625 81.4286 3.27306C80.905 3.46531 80.3487 3.20348 79.817 3.42845C79.2852 3.65342 78.7779 3.07258 78.2462 3.42845C76.9542 3.25053 75.644 3.25053 74.3521 3.42845C74.2148 3.42127 74.0781 3.40503 73.943 3.37952C73.0309 3.32634 72.0942 3.13818 71.2106 3.27726C70.77 3.36996 70.3106 3.29094 69.9262 3.05635C69.7135 2.92137 69.7217 2.98676 69.5622 3.10129C69.3022 3.26147 69.0077 3.35693 68.7032 3.37952C68.3882 3.42042 68.0569 3.35497 67.7378 3.37952C66.2036 3.48528 64.6628 3.44555 63.1361 3.26088C62.6483 3.19593 62.1529 3.21516 61.6717 3.318C61.116 3.45485 60.5329 3.43076 59.9905 3.24849C59.6546 3.16703 59.3064 3.14904 58.9638 3.19537C57.6794 3.30172 56.4032 3.4531 55.1229 3.54309C54.2639 3.60036 53.3845 3.47354 52.55 3.62898C51.2449 3.90274 49.9189 4.06555 48.5863 4.11572C47.4615 4.11572 46.353 4.45926 45.2199 4.26292C44.8763 4.20565 44.5123 4.26299 44.1646 4.23436C43.8169 4.20572 43.4733 3.899 43.3751 4.4962C43.3192 4.49795 43.2635 4.48807 43.2115 4.46744C42.9538 4.27928 42.7166 4.41017 42.4629 4.46744C41.968 4.61061 41.4649 4.71703 40.9659 4.84792C40.8963 4.84792 40.8431 4.95024 40.7818 5.00751C40.8416 5.04941 40.908 5.08119 40.9781 5.10158C41.1699 5.10996 41.3537 5.1807 41.5014 5.30331C41.6491 5.42591 41.7526 5.5935 41.7962 5.78046C41.8472 6.2399 41.8472 6.70373 41.7962 7.16318C41.7962 7.28589 41.6612 7.45765 41.7062 7.52309C41.9844 7.90759 41.7676 8.29612 41.7921 8.67653C41.923 9.49899 41.923 10.3371 41.7921 11.1596C41.7154 11.766 41.7003 12.3784 41.7471 12.9879C41.7185 13.9941 41.6776 15.0004 41.6449 16.0108C41.6306 16.0961 41.6306 16.1831 41.6449 16.2684C41.9721 17.426 41.5303 18.5796 41.6203 19.7331C41.653 20.1626 41.563 20.6044 41.6203 21.0298C41.6692 21.518 41.6692 22.0099 41.6203 22.4982C41.5671 23.214 41.6203 23.9421 41.6203 24.662C41.651 25.0039 41.6317 25.3484 41.563 25.6846C41.3299 26.4618 41.5631 27.2759 41.3217 28.0612C41.2377 28.5169 41.2377 28.9841 41.3217 29.4397C41.3562 29.6986 41.4109 29.9542 41.4853 30.2045C41.6968 30.1784 41.9043 30.1262 42.103 30.0491C42.3934 29.8937 42.8311 29.73 42.9211 29.4805C43.1049 28.8412 43.1917 28.1782 43.1788 27.5132C43.1583 26.3801 43.0356 25.247 42.9538 24.114C42.9314 23.9992 42.9314 23.8811 42.9538 23.7662C43.2482 22.8169 43.3593 21.8201 43.281 20.8292C43.2565 19.5448 43.3056 18.2565 43.3342 16.9721C43.2905 16.1823 43.3275 15.39 43.4447 14.6077C43.5922 13.9546 43.6432 13.2834 43.596 12.6156C43.551 11.777 43.8333 10.9182 43.4529 10.096C43.425 9.98317 43.425 9.8651 43.4529 9.75227C43.5428 9.14688 43.6083 8.52516 43.731 7.93613C43.7953 7.53615 43.9208 7.14843 44.1032 6.78669C44.1955 6.55233 44.3576 6.35211 44.5676 6.21307C44.7777 6.07403 45.0254 6.00295 45.2772 6.00955C46.0625 6.10772 46.7784 5.84606 47.5269 5.73971C47.6938 5.69136 47.8651 5.65965 48.0382 5.64544C48.3451 5.72754 48.6681 5.72754 48.975 5.64544C49.2531 5.53909 49.6213 5.68241 49.9526 5.70696C51.8301 5.84603 53.6871 5.4737 55.5565 5.49824C56.35 5.49824 57.1395 5.49836 57.929 5.51881C58.1621 5.51881 58.4443 5.60471 58.6202 5.51881C59.3974 5.08932 60.2032 5.36739 60.9927 5.34285C61.4017 5.34285 61.7863 5.37967 62.1789 5.34285C63.6512 5.15204 65.1328 5.04287 66.6171 5.0157C67.4597 5.0157 68.3064 4.98701 69.1531 4.96656C69.9691 4.89316 70.7894 4.87945 71.6074 4.92562C72.4874 4.97529 73.3701 4.93425 74.2417 4.80298C75.2377 4.66671 76.2435 4.61603 77.2481 4.65159C77.7267 4.69658 78.2012 4.74561 78.6798 4.79879C79.1353 4.80602 79.589 4.85952 80.0337 4.95837C80.7577 5.19562 81.5226 5.2773 82.2385 5.54318C82.3694 5.59227 82.5412 5.57192 82.6475 5.64964C83.2284 6.08322 83.3879 7.57207 82.8316 8.02202C82.5207 8.27153 82.5698 8.48027 82.6066 8.75842C82.7293 9.67877 82.8971 10.599 82.9789 11.5235C83.1174 12.5895 83.1844 13.6637 83.1793 14.7387C83.1392 15.3333 83.2184 15.9298 83.4124 16.4933C83.6129 17.0537 83.3879 17.7614 83.3879 18.4077C83.4358 18.8424 83.4618 19.2794 83.4656 19.7167C83.4206 20.6154 83.5383 21.5146 83.8133 22.3713C83.929 22.754 83.9693 23.1555 83.9319 23.5535C83.8827 23.752 83.9069 23.9614 84.0002 24.1433C84.0934 24.3253 84.2493 24.4674 84.4391 24.5434C84.615 24.6457 84.7868 24.7601 84.9545 24.8787C85.3922 25.1732 85.5804 25.0916 85.5845 24.5476C85.5886 24.0036 85.5068 23.5617 85.4781 23.0668C85.4422 22.8674 85.4563 22.6622 85.519 22.4696C86.0262 21.5043 85.8381 20.4774 85.7767 19.4753C85.7194 18.5999 85.3963 17.7328 85.4249 16.8656C85.4536 15.9984 85.2777 15.16 85.2408 14.3051C85.2163 13.667 85.0813 13.0288 85.0159 12.3907C84.9604 12.1084 84.9604 11.8181 85.0159 11.5358C85.1608 10.9384 85.1453 10.3132 84.9709 9.72371C84.8669 9.24405 84.8462 8.75017 84.9095 8.26349C84.9686 7.93014 84.9851 7.59056 84.9586 7.25306C84.8891 6.56177 84.795 5.87056 84.7377 5.17927C84.7026 4.89839 84.6849 4.61549 84.6845 4.33242H84.6968ZM63.1852 28.6542C64.1096 29.0919 64.8541 28.2452 65.7376 28.0121C65.9107 27.9729 66.0693 27.8858 66.1952 27.7606C66.3211 27.6355 66.4092 27.4773 66.4493 27.3044C66.4841 27.1616 66.5699 27.0365 66.6907 26.9527C67.6601 26.3187 68.0528 25.3166 68.4496 24.3021C68.6414 23.8748 68.727 23.4075 68.6991 22.94C68.6118 21.9624 68.4254 20.9962 68.1428 20.0563C67.7198 18.7544 66.8949 17.62 65.7867 16.8165C65.5331 16.5549 65.2299 16.3463 64.895 16.2029C64.5636 16.1252 64.3223 15.8594 64.0074 15.843C63.1484 15.8062 62.2893 15.8144 61.4263 15.8063C60.6378 15.7417 59.8547 15.9819 59.2379 16.4771C58.9471 16.6564 58.6274 16.7837 58.293 16.8534C58.2153 16.8821 58.0885 16.8738 58.0516 16.9269C57.6917 17.4464 57.0413 17.7901 57.0045 18.5018C56.9155 19.1388 56.6474 19.7375 56.2314 20.228C56.1398 20.3622 56.0732 20.5119 56.0351 20.6698C55.8306 21.5616 55.9819 22.4696 55.9982 23.3654C55.9982 24.1835 56.1618 25.0015 56.9145 25.5496C57.0699 25.6601 57.1231 25.8974 57.2499 26.0569C57.7244 26.6582 58.068 27.3945 58.9188 27.6236C59.0187 27.6737 59.1069 27.7444 59.1774 27.8311C59.2479 27.9179 59.2992 28.0187 59.3279 28.1267C59.4997 28.7239 59.8514 29.0921 60.3546 28.9203C61.234 28.6176 62.1625 28.8587 63.1729 28.6542H63.1852ZM70.8875 35.4853C70.9603 35.5013 71.0341 35.5122 71.1084 35.5181C71.1953 35.5283 71.2832 35.5283 71.3702 35.5181C71.632 35.4895 71.7096 35.3054 71.5378 35.1091C71.4568 35.0261 71.3708 34.9483 71.2802 34.876C70.6666 34.291 70.053 33.7224 69.4435 33.1212C68.7634 32.5068 68.232 31.7459 67.8892 30.896C67.5497 29.9184 67.7338 30.1187 66.7725 30.4214C66.5657 30.5201 66.3807 30.6592 66.2284 30.8305C65.9591 31.0904 65.6108 31.2531 65.2386 31.2926C65.0823 31.3068 64.9306 31.3528 64.7927 31.4276C64.0517 31.8331 63.1925 31.9677 62.363 31.8081C62.2076 31.7836 62.093 31.6813 61.8926 31.8081C61.6921 31.9349 61.459 31.8368 61.2422 31.8081C60.5387 31.7059 59.8351 31.583 59.1315 31.4726C58.8779 31.4317 58.8452 31.5667 58.7634 31.8039C58.428 32.7775 58.6161 33.9433 57.7326 34.7246C57.6744 34.7922 57.64 34.8769 57.6344 34.9658C57.6283 35.1277 57.5793 35.285 57.4923 35.4216C57.4053 35.5582 57.2835 35.669 57.1395 35.743C57.0699 35.7716 57.0372 35.878 56.984 35.9475C57.074 36.013 57.164 36.1194 57.2581 36.1317C57.7211 36.184 58.187 36.2059 58.6529 36.1972C60.4773 36.1072 62.2976 35.9762 64.1219 35.8944C66.2203 35.7962 68.3269 35.8371 70.4089 35.4853C70.5638 35.4676 70.7203 35.4676 70.8752 35.4853H70.8875ZM48.5536 68.5688C48.5086 69.0842 48.4309 69.5997 48.4228 70.1151C48.3888 70.3655 48.4365 70.6201 48.5589 70.8412C48.6812 71.0622 48.8716 71.238 49.1017 71.3423C49.3116 71.4356 49.5424 71.4719 49.7708 71.4475C49.9992 71.4231 50.2171 71.3387 50.4025 71.2031C50.9097 70.839 51.5887 70.749 51.9773 70.1804C52.0591 70.0659 52.3005 70.0659 52.46 70.0005C52.6502 69.9307 52.8314 69.8388 52.9999 69.7265C54.0185 68.9084 54.3375 67.7468 54.6361 66.5688C54.7711 66.0329 54.8856 65.493 54.9797 64.9326C55.0738 64.3722 55.3192 63.8854 54.7957 63.3905C54.5376 63.0764 54.3268 62.7264 54.1698 62.3515C53.7608 61.607 53.4213 61.5334 52.7014 62.0119C52.5827 62.0937 52.4805 62.2041 52.3537 62.2778C51.7267 62.6976 51.0705 63.0722 50.3902 63.3987C49.699 63.6891 49.4372 63.9549 49.4208 64.7117C49.4238 64.9969 49.3549 65.2782 49.2204 65.5298C48.6191 66.4828 48.6273 67.538 48.5536 68.5688ZM72.4214 40.1157C72.3028 39.1912 72.3028 39.1709 71.3988 39.2323C70.4134 39.2463 69.4309 39.3434 68.4619 39.5227C67.548 39.7082 66.6102 39.7455 65.6844 39.6331C65.3768 39.5706 65.0578 39.596 64.7641 39.7066C64.1505 40.0952 63.631 39.7599 63.1279 39.5758C62.8375 39.4694 62.6657 39.2159 62.4489 39.6659C62.4121 39.7477 61.9744 39.6331 61.7208 39.6167C59.876 39.4736 58.0394 39.6167 56.1823 39.5594C56.0719 39.5594 55.9369 39.5226 55.8551 39.5594C55.6968 39.6705 55.518 39.7491 55.3291 39.7905C55.1402 39.8319 54.9449 39.8355 54.7547 39.8009C54.5644 39.7663 54.3829 39.6941 54.2207 39.5888C54.0585 39.4834 53.9188 39.3469 53.8098 39.1871C53.7456 39.1438 53.6717 39.1171 53.5946 39.1092C53.5176 39.1014 53.4397 39.1127 53.3681 39.1422C53.0942 39.3978 52.8949 39.7231 52.7913 40.0831C52.8051 40.5773 52.8976 41.0661 53.0654 41.5311C53.0654 41.6048 53.3067 41.6537 53.4376 41.666C54.1862 41.7355 54.9307 41.7968 55.6792 41.8459C55.7774 41.8459 55.8755 41.7478 55.9778 41.7069C56.1217 41.6253 56.2778 41.5673 56.44 41.5351C57.3113 41.4533 58.1826 41.3961 59.0538 41.3306C59.4591 41.2625 59.8705 41.2378 60.281 41.2569C61.0704 41.3592 61.8435 41.1057 62.6248 41.2244C62.7104 41.2344 62.7969 41.2344 62.8825 41.2244C63.3979 41.163 63.9092 41.0728 64.4246 41.0442C64.7723 41.0442 65.124 41.1383 65.4676 41.1179C66.9565 41.0238 68.4373 40.893 69.9221 40.7907C70.5807 40.7498 71.2229 40.9992 71.906 40.8233C72.4582 40.6719 72.4787 40.7456 72.401 40.1157H72.4214ZM57.2867 60.1589C57.2049 60.1589 57.0004 60.208 56.8041 60.2653C56.7766 60.2893 56.7558 60.32 56.7436 60.3544C56.7314 60.3888 56.7283 60.4257 56.7345 60.4616C56.9418 60.8915 57.1869 61.3022 57.4667 61.6888C57.7529 62.0177 57.9679 62.4022 58.0981 62.8182C58.2284 63.2343 58.271 63.6729 58.2235 64.1063C58.1335 64.8998 58.2807 65.7424 57.884 66.4869C57.828 66.5895 57.8011 66.7054 57.8062 66.8222C57.8289 66.982 57.8659 67.1396 57.9167 67.2928C58.0508 67.2445 58.1786 67.1798 58.2971 67.1004C59.152 66.3764 59.786 65.3661 60.9599 65.0552C60.9883 65.0469 61.0145 65.0323 61.0365 65.0125C61.0584 64.9926 61.0756 64.9682 61.0868 64.9408C61.2299 64.3885 61.7576 64.3721 62.1544 64.188C62.4162 64.0612 62.7189 64.0245 62.9725 63.8936C63.8437 63.4559 63.8274 63.2963 63.2465 62.5069C62.5768 61.6471 61.6628 61.0097 60.6245 60.6783C59.5978 60.3143 58.4525 60.3185 57.254 60.1467L57.2867 60.1589Z" fill="#802A00"/>
<path d="M21.157 125.343C21.2121 124.555 21.3104 123.769 21.4515 122.991C21.8155 121.49 22.2696 120.009 22.6786 118.525C22.8627 117.858 23.0427 117.187 23.2554 116.528C23.5335 115.649 23.9671 114.798 24.1103 113.898C24.2862 112.831 25.0102 111.914 24.8957 110.785C24.8957 110.667 25.0225 110.544 25.0675 110.413C25.3947 109.509 25.6974 108.597 26.0369 107.701C26.4459 106.584 26.7036 105.406 27.3254 104.363C27.5481 103.886 27.7421 103.395 27.9062 102.895C28.1993 102.076 28.582 101.293 29.0474 100.559C29.3788 100.121 29.2315 99.6676 29.4565 99.2585C29.6406 98.9108 30.1478 98.6325 29.8369 98.1049C29.8124 98.0599 29.8615 97.9535 29.9024 97.8922C30.3114 97.25 30.7204 96.6282 31.1009 95.9738C31.4813 95.3193 31.7758 94.5789 32.1726 93.9285C32.7779 92.9059 33.4324 91.912 34.0705 90.9098C34.1319 90.8117 34.271 90.7299 34.271 90.644C34.271 89.7523 34.9582 89.2492 35.3713 88.5988C35.7579 88.1241 36.1041 87.6177 36.4062 87.0852C36.6157 86.7241 36.8935 86.4074 37.2243 86.1527C37.2856 86.0913 37.482 86.1773 37.6333 86.1936C37.5761 86.0668 37.4492 85.9155 37.4779 85.8092C37.5638 85.4983 37.6251 85.0851 37.846 84.9256C38.3287 84.582 38.435 83.8743 39.0731 83.6984C39.0731 83.1585 39.5395 82.8803 39.7808 82.4713C40.3657 81.5182 40.8688 80.4833 41.9037 79.8984C41.9692 79.8539 42.0204 79.7914 42.051 79.7184C42.4928 78.7285 43.3272 78.0453 44.0062 77.2436C44.5012 76.6668 45.1188 76.1964 45.5728 75.6074C45.8918 75.2297 46.2954 74.9327 46.7509 74.7404C47.1313 74.5359 47.479 74.7404 47.4176 75.1494C47.3657 75.4952 47.2371 75.825 47.0414 76.1147C46.0146 77.5996 44.9552 79.064 43.904 80.5365C43.8047 80.6827 43.6925 80.8196 43.5685 80.9456C42.6686 81.8127 42.0919 82.8968 41.4742 83.9603C41.1518 84.4437 40.7965 84.9041 40.4107 85.3386C40.155 85.6129 39.925 85.9099 39.7235 86.2262C39.367 86.8605 38.9722 87.4726 38.5414 88.0589C37.7601 89.192 37.077 90.3904 36.2998 91.5316C36.017 91.9108 35.7536 92.3039 35.5104 92.7096C35.0032 93.6381 34.4509 94.5463 33.9724 95.483C33.052 97.2787 32.1685 99.0907 31.2972 100.907C30.7511 101.996 30.3391 103.147 30.0701 104.335C30.0527 104.452 30.0094 104.564 29.9433 104.662C29.1252 105.644 29.0434 106.924 28.4993 108.016C28.2468 108.684 28.0377 109.367 27.8735 110.061C27.6403 110.74 27.3172 111.391 27.0922 112.074C26.755 112.998 26.4911 113.947 26.3028 114.913C26.203 115.362 26.0662 115.803 25.8937 116.23C25.8569 116.34 25.726 116.422 25.7137 116.524C25.5992 117.58 25.0633 118.5 24.8016 119.506C24.6206 120.421 24.2904 121.3 23.824 122.108C23.6908 122.426 23.6227 122.769 23.6235 123.114C23.6043 123.431 23.566 123.746 23.509 124.059C23.329 124.73 23.0999 125.392 22.8913 126.051C22.8098 126.292 22.6896 126.519 22.5355 126.722C22.2041 127.151 21.8523 127.159 21.6069 126.681C21.4169 126.25 21.2663 125.802 21.157 125.343Z" fill="#802A00"/>
<path d="M60.2996 17.8984C60.5821 17.9949 60.8558 18.1153 61.1177 18.2583C61.4134 18.4443 61.7696 18.5088 62.1117 18.4383C62.8332 18.3266 63.5619 18.2677 64.2919 18.2623C64.5537 18.2623 64.9955 18.4137 65.0405 18.5773C65.1509 19.015 65.7604 19.2032 65.564 19.8045C65.422 20.2482 65.3409 20.7092 65.3227 21.1748C65.2941 21.7761 65.3227 22.3774 65.3595 22.9787C65.343 23.3282 65.3554 23.6785 65.3964 24.0259C65.5068 24.6395 65.1223 24.9502 64.7173 25.2325C64.5169 25.3716 64.2388 25.5229 64.0752 25.1138C64.0273 25.0714 63.9702 25.0409 63.9084 25.0246C63.8466 25.0082 63.7818 25.0066 63.7193 25.0198C62.6067 25.6906 61.3468 25.6048 60.1361 25.748C59.5716 25.8134 59.0643 25.163 59.093 24.5208C59.1001 24.4131 59.0819 24.3053 59.0398 24.2059C58.5244 23.171 58.7821 22.038 58.6308 20.9581C58.6141 20.8117 58.6309 20.6634 58.6798 20.5245C58.796 20.2016 58.8145 19.8516 58.733 19.5182C58.5653 18.7779 59.4447 17.9353 60.2996 17.8984Z" fill="#802A00"/>
</svg>
