<svg width="45" height="34" viewBox="0 0 45 34" fill="none" xmlns="http://www.w3.org/2000/svg">
<path d="M4.31479 14.5435C6.60647 14.503 8.6773 14.3855 10.7339 14.7401C10.9507 14.7765 11.202 14.657 11.431 14.5881C12.5596 14.2477 13.6922 14.2011 14.8411 14.4949C15.84 14.7502 16.8593 14.5314 17.8703 14.6063C19.4306 14.7218 20.9827 14.3004 22.5327 14.3794C23.7951 14.4442 25.0716 14.424 26.3258 14.6205C26.9621 14.7198 27.5639 14.7543 28.2143 14.5901C28.9215 14.4138 29.6225 14.8373 30.356 14.8373C31.1625 14.8373 31.9568 15.0399 32.7308 15.2709C33.598 15.5283 33.8169 16.3145 33.1847 16.9527C32.2202 17.9273 30.9599 18.3549 29.655 18.5453C28.575 18.7034 27.4727 18.7946 26.3846 18.8513C25.2337 18.9101 24.0747 19.3072 22.9076 18.9222C22.707 18.8554 22.4578 18.8412 22.2551 18.8959C20.8976 19.2687 19.4853 19.0175 18.1176 19.2849C17.6961 19.368 17.2341 19.3396 16.8045 19.2728C16.2088 19.1796 15.6374 19.1958 15.0701 19.3822C14.3447 19.6213 13.6233 19.3173 12.8959 19.3315C12.1604 19.3457 11.431 19.372 10.7339 19.5483C9.63774 19.828 8.54762 19.6719 7.47979 19.5585C6.5153 19.4571 5.58525 19.5423 4.63494 19.5666C3.73732 19.5909 2.79917 19.6679 1.91573 19.5119C0.912739 19.3336 0.477093 18.4177 0.110344 17.5808C-0.217907 16.8311 0.24408 16.278 0.748611 15.739C1.49224 14.9427 2.34934 14.5172 3.45364 14.5921C3.81431 14.6165 4.18107 14.5496 4.32088 14.5415L4.31479 14.5435Z" fill="#1C1D1E"/>
<path d="M32.5338 33.2584C31.2613 33.2685 30.2847 32.1318 30.4974 30.8107C30.6373 29.9374 30.9574 29.1208 31.5248 28.4116C31.9604 27.8665 32.4021 27.3174 32.7608 26.7217C34.011 24.6367 35.3807 22.6429 37.022 20.8436C37.1658 20.6855 37.2833 20.4809 37.3543 20.2783C37.7777 19.0645 38.6267 18.1426 39.4555 17.2105C39.96 16.6432 40.0046 16.2217 39.4291 15.7192C38.6673 15.0526 38.0715 14.2907 37.6481 13.3708C37.3482 12.7224 36.716 12.3455 36.254 11.8288C35.6117 11.1095 35.1983 10.2301 34.7465 9.4014C34.1204 8.25252 33.2146 7.33666 32.4791 6.28706C31.7375 5.22937 31.1155 4.10684 30.6656 2.89312C30.5643 2.61958 30.4934 2.3278 30.465 2.03804C30.4144 1.49096 30.7467 1.15055 31.1742 0.885113C31.5774 0.633859 31.9401 0.739223 32.2967 1.00466C33.0019 1.52946 33.7496 1.97726 34.2966 2.71481C34.9957 3.65498 36.0615 4.27704 36.6674 5.31447C38.264 6.22425 39.032 7.86146 40.1221 9.22107C40.7624 10.0194 41.5445 10.7104 42.2963 11.4114C42.9021 11.9768 43.3965 12.5948 43.6153 13.4073C43.743 13.8794 44.0267 14.2603 44.2901 14.6635C44.9182 15.626 44.8777 16.6067 44.2617 17.5672C43.3519 18.9855 42.5982 20.5052 41.5668 21.8466C40.4969 23.2386 39.7878 24.8839 38.5416 26.1564C37.7838 26.9304 37.3826 27.9253 36.9146 28.8837C36.2682 30.2068 35.5043 31.4631 34.4202 32.4843C33.8225 33.0456 33.2754 33.2543 32.5399 33.2604L32.5338 33.2584Z" fill="#1C1D1E"/>
</svg>
